<mxfile host="65bd71144e">
    <diagram id="et6ZL5nDRBVg1DVwjbSL" name="ページ1">
        <mxGraphModel dx="1081" dy="573" grid="0" gridSize="10" guides="1" tooltips="1" connect="1" arrows="1" fold="1" page="1" pageScale="1" pageWidth="1169" pageHeight="827" math="0" shadow="0">
            <root>
                <mxCell id="0"/>
                <mxCell id="1" parent="0"/>
                <mxCell id="19" value="" style="rounded=0;whiteSpace=wrap;html=1;shadow=0;glass=0;labelBackgroundColor=#000000;sketch=0;fontFamily=JetBrains Mono;fontSize=14;strokeColor=none;" parent="1" vertex="1">
                    <mxGeometry x="213" y="66" width="720" height="440" as="geometry"/>
                </mxCell>
                <mxCell id="18" style="edgeStyle=none;html=1;entryX=0;entryY=0.5;entryDx=0;entryDy=0;fontFamily=JetBrains Mono;fontSize=14;fontColor=#FFFFFF;strokeWidth=2;" parent="1" source="2" target="12" edge="1">
                    <mxGeometry relative="1" as="geometry"/>
                </mxCell>
                <mxCell id="2" value="" style="rounded=1;whiteSpace=wrap;html=1;fillColor=#000000;shadow=1;arcSize=4;glass=0;sketch=0;" parent="1" vertex="1">
                    <mxGeometry x="253" y="106" width="290" height="360" as="geometry"/>
                </mxCell>
                <mxCell id="8" value="" style="group;aspect=fixed;" parent="1" vertex="1" connectable="0">
                    <mxGeometry x="269" y="120" width="60" height="20" as="geometry"/>
                </mxCell>
                <mxCell id="3" value="" style="ellipse;whiteSpace=wrap;html=1;aspect=fixed;shadow=0;glass=0;sketch=0;fillColor=#FF540A;strokeColor=none;" parent="8" vertex="1">
                    <mxGeometry width="14.906832298136644" height="14.906832298136644" as="geometry"/>
                </mxCell>
                <mxCell id="4" value="" style="ellipse;whiteSpace=wrap;html=1;aspect=fixed;shadow=0;glass=0;sketch=0;fillColor=#FFCA1C;strokeColor=none;" parent="8" vertex="1">
                    <mxGeometry x="22.360248447204967" width="14.906832298136644" height="14.906832298136644" as="geometry"/>
                </mxCell>
                <mxCell id="5" value="" style="ellipse;whiteSpace=wrap;html=1;aspect=fixed;shadow=0;glass=0;sketch=0;fillColor=#00B800;strokeColor=none;" parent="8" vertex="1">
                    <mxGeometry x="45.09316770186335" width="14.906832298136644" height="14.906832298136644" as="geometry"/>
                </mxCell>
                <mxCell id="11" value="&lt;h1 style=&quot;font-size: 14px&quot;&gt;$ cat hello.go.md&lt;/h1&gt;&lt;div&gt;&lt;font color=&quot;#00cc00&quot;&gt;#&lt;/font&gt;&amp;nbsp;&lt;font color=&quot;#ffca1c&quot;&gt;hello.go&lt;/font&gt;&lt;/div&gt;&lt;h1 style=&quot;font-size: 14px&quot;&gt;&lt;span style=&quot;font-weight: normal&quot;&gt;```&lt;/span&gt;&lt;br&gt;&lt;/h1&gt;&lt;div&gt;package main&lt;/div&gt;&lt;div&gt;import &quot;fmt&quot;&lt;/div&gt;&lt;div&gt;&lt;font color=&quot;#ffca1c&quot;&gt;const WHO&lt;/font&gt;&amp;nbsp;= &quot;godown&quot;&lt;/div&gt;&lt;div&gt;```&lt;/div&gt;&lt;div&gt;&lt;br&gt;&lt;/div&gt;&lt;div&gt;&lt;font color=&quot;#00b800&quot;&gt;##&lt;/font&gt;&amp;nbsp;&lt;font color=&quot;#ffca1c&quot;&gt;func main&lt;/font&gt;&lt;/div&gt;&lt;div&gt;```&lt;/div&gt;&lt;div&gt;fmt.Printf(&quot;&lt;font color=&quot;#00ffff&quot;&gt;Hello %s!&quot;&lt;/font&gt;,&lt;font color=&quot;#00cccc&quot;&gt;&amp;nbsp;&lt;/font&gt;&lt;font color=&quot;#ffca1c&quot;&gt;WHO&lt;/font&gt;)&lt;br&gt;&lt;/div&gt;&lt;div&gt;```&lt;/div&gt;" style="text;html=1;strokeColor=none;fillColor=none;spacing=5;spacingTop=-20;whiteSpace=wrap;overflow=hidden;rounded=0;shadow=0;glass=0;sketch=0;fontFamily=JetBrains Mono;fontSize=14;fontColor=#FFFFFF;labelBackgroundColor=#000000;" parent="1" vertex="1">
                    <mxGeometry x="273" y="176" width="260" height="260" as="geometry"/>
                </mxCell>
                <mxCell id="12" value="" style="rounded=1;whiteSpace=wrap;html=1;fillColor=#000000;shadow=1;arcSize=4;glass=0;sketch=0;" parent="1" vertex="1">
                    <mxGeometry x="593" y="106" width="300" height="360" as="geometry"/>
                </mxCell>
                <mxCell id="13" value="" style="group;aspect=fixed;" parent="1" vertex="1" connectable="0">
                    <mxGeometry x="609" y="120" width="60" height="20" as="geometry"/>
                </mxCell>
                <mxCell id="14" value="" style="ellipse;whiteSpace=wrap;html=1;aspect=fixed;shadow=0;glass=0;sketch=0;fillColor=#FF540A;strokeColor=none;" parent="13" vertex="1">
                    <mxGeometry width="14.906832298136644" height="14.906832298136644" as="geometry"/>
                </mxCell>
                <mxCell id="15" value="" style="ellipse;whiteSpace=wrap;html=1;aspect=fixed;shadow=0;glass=0;sketch=0;fillColor=#FFCA1C;strokeColor=none;" parent="13" vertex="1">
                    <mxGeometry x="22.360248447204967" width="14.906832298136644" height="14.906832298136644" as="geometry"/>
                </mxCell>
                <mxCell id="16" value="" style="ellipse;whiteSpace=wrap;html=1;aspect=fixed;shadow=0;glass=0;sketch=0;fillColor=#00B800;strokeColor=none;" parent="13" vertex="1">
                    <mxGeometry x="45.09316770186335" width="14.906832298136644" height="14.906832298136644" as="geometry"/>
                </mxCell>
                <mxCell id="17" value="&lt;h1 style=&quot;font-size: 14px&quot;&gt;$ godown run hello.go.md&lt;/h1&gt;&lt;div&gt;&lt;font color=&quot;#00ffff&quot;&gt;Hello, godown!&lt;/font&gt;&lt;/div&gt;&lt;div&gt;&lt;br&gt;&lt;/div&gt;&lt;div&gt;&lt;br&gt;&lt;/div&gt;" style="text;html=1;strokeColor=none;fillColor=none;spacing=5;spacingTop=-20;whiteSpace=wrap;overflow=hidden;rounded=0;shadow=0;glass=0;sketch=0;fontFamily=JetBrains Mono;fontSize=14;fontColor=#FFFFFF;labelBackgroundColor=#000000;" parent="1" vertex="1">
                    <mxGeometry x="613" y="176" width="260" height="240" as="geometry"/>
                </mxCell>
                <mxCell id="21" value="&lt;h1 style=&quot;font-size: 14px&quot;&gt;hello.go.md&lt;/h1&gt;" style="text;html=1;strokeColor=none;fillColor=none;spacing=5;spacingTop=-20;overflow=hidden;rounded=0;shadow=0;glass=0;sketch=0;fontFamily=Helvetica;fontSize=14;fontColor=#FFFFFF;labelBackgroundColor=#000000;align=left;verticalAlign=top;" parent="1" vertex="1">
                    <mxGeometry x="353" y="120" width="130" height="26" as="geometry"/>
                </mxCell>
                <mxCell id="22" value="" style="shape=image;verticalLabelPosition=bottom;labelBackgroundColor=#ffffff;verticalAlign=top;aspect=fixed;imageAspect=0;image=data:image/png,iVBORw0KGgoAAAANSUhEUgAAAo4AAAK2CAYAAADAJx0gAAAAAXNSR0IArs4c6QAAAJZlWElmTU0AKgAAAAgABAEaAAUAAAABAAAAPgEbAAUAAAABAAAARgEoAAMAAAABAAIAAIdpAAQAAAABAAAATgAAAAAAAACQAAAAAQAAAJAAAAABAASShgAHAAAAEgAAAISgAQADAAAAAQABAACgAgAEAAAAAQAAAo6gAwAEAAAAAQAAArYAAAAAQVNDSUkAAABTY3JlZW5zaG90QVo4xwAAAAlwSFlzAAAWJQAAFiUBSVIk8AAAAdZpVFh0WE1MOmNvbS5hZG9iZS54bXAAAAAAADx4OnhtcG1ldGEgeG1sbnM6eD0iYWRvYmU6bnM6bWV0YS8iIHg6eG1wdGs9IlhNUCBDb3JlIDYuMC4wIj4KICAgPHJkZjpSREYgeG1sbnM6cmRmPSJodHRwOi8vd3d3LnczLm9yZy8xOTk5LzAyLzIyLXJkZi1zeW50YXgtbnMjIj4KICAgICAgPHJkZjpEZXNjcmlwdGlvbiByZGY6YWJvdXQ9IiIKICAgICAgICAgICAgeG1sbnM6ZXhpZj0iaHR0cDovL25zLmFkb2JlLmNvbS9leGlmLzEuMC8iPgogICAgICAgICA8ZXhpZjpQaXhlbFlEaW1lbnNpb24+Njk0PC9leGlmOlBpeGVsWURpbWVuc2lvbj4KICAgICAgICAgPGV4aWY6UGl4ZWxYRGltZW5zaW9uPjY1NDwvZXhpZjpQaXhlbFhEaW1lbnNpb24+CiAgICAgICAgIDxleGlmOlVzZXJDb21tZW50PlNjcmVlbnNob3Q8L2V4aWY6VXNlckNvbW1lbnQ+CiAgICAgIDwvcmRmOkRlc2NyaXB0aW9uPgogICA8L3JkZjpSREY+CjwveDp4bXBtZXRhPgrKX6h2AAAAHGlET1QAAAACAAAAAAAAAVsAAAAoAAABWwAAAVsAAGXK06PEwQAAQABJREFUeAHsnQWcFMcSxgs43N3d3V2Du7uGoMEhkCDBNcCDQJBASAgQ3N0J7hbc3e1wPeB19TJzc3uzdrezN7d8/X7ZnWmp6f7P5uW77q7qMNFjJ/xMSCAAAiAAAiAAAiAAAiDggEAYCEcHhFAMAiAAAiAAAiAAAiAgCUA44ocAAiAAAiAAAiAAAiDgFAEIR6cwoRIIgAAIgAAIgAAIgACEI34DIAACIAACIAACIAACThGAcHQKEyqBAAiAAAiAAAiAAAhAOOI3AAIgAAIgAAIgAAIg4BQBCEenMKESCIAACIAACIAACIAAhCN+AyAAAiAAAiAAAiAAAk4RgHB0ChMqgQAIgAAIgAAIgAAIQDjiNwACIAACIAACIAACIOAUAQhHpzChEgiAAAiAAAiAAAiAAIQjfgMgAAIgAAIgAAIgAAJOEYBwdAoTKoEACIAACIAACIAACEA44jcAAiAAAiAAAiAAAiDgFAEIR6cwoRIIgAAIgAAIgAAIgACEI34DIAACIAACIAACIAACThGAcHQKEyqBAAiAAAiAAAiAAAhAOOI3AAIgAAIgAAIgAAIg4BQBCEenMKESCIAACIAACIAACIAAhCN+AyAAAiAAAiAAAiAAAk4RgHB0ChMqgQAIgAAIgAAIgAAIQDjiNwACIAACIAACIAACIOAUAQhHpzChEgiAAAiAAAiAAAiAAIQjfgMgAAIgAAIgAAIgAAJOEYBwdAoTKoEACIAACIAACIAACEA44jcAAiAAAiAAAiAAAiDgFAEIR6cwoRIIgAAIgAAIgAAIgACEI34DIAACIAACIAACIAACThGAcHQKEyqBAAiAAAiAAAiAAAhAOOI3AAIgAAIgAAIgAAIg4BQBCEenMKESCIAACIAACIAACIAAhCN+AyAAAiAAAiAAAiAAAk4RgHB0ChMqgQAIgAAIgAAIgAAIQDjiNwACIAACIAACIAACIOAUAQhHpzChEgiAAAiAAAiAAAiAAIQjfgMgAAIgAAIgAAIgAAJOEYBwdAoTKoEACIAACIAACIAACEA44jcAAiAAAiAAAiAAAiDgFAEIR6cwoRIIgAAIgAAIgAAIgACEI34DIAACIAACIAACIAACThGAcHQKEyqBAAiAAAiAAAiAAAhAOOI3AAIgAAIgAAIgAAIg4BQBCEenMKESCIAACIAACIAACIAAhCN+AyAAAiAAAiAAAiAAAk4RgHB0ChMqgQAIgAAIgAAIgAAIQDjiNwACIAACIAACIAACIOAUAQhHpzChEgiAAAiAAAiAAAiAgFcKx9JlylKbdu1tvt13797Rt82a2Cz/Ggp+m/o7xYsbz+ZQly9dQosWLtAt79rjBypUqLBuGWeeO3eWBg/ob7McBSAAAiAAAiAAAqGTgFcKx05du1HNWrXtvpGypUrYLff2wo1b/6Vw4cLZHOb+fXvp5z69dctnzv6HkqdIoVvGmc+ePaM6NarZLEcBCIAACIAACIBA6CQA4Rg631uwew3hGGyEMAACIAACIAACXx0BCMev7pVbBgzh+JW+eAwbBEAABEAABIJBAMIxGPBCc1MIx9D89tB3EAABEAABEAgZAhCOIcM9xJ8K4RjirwAdAAEQAAEQAIFQRwDCMdS9Mvd0GMLRPRxhBQRAAARAAAS+JgIQjl/T29aMFcJRAwOXIAACIAACIAACThGAcHQKk/dVgnD0vneKEYEACIAACICA0QQgHI0mbFL7EI4mfTHoFgiAAAiAAAiYmACEo4lfjpFdg3A0ki5sgwAIgAAIgIB3EoBwtHqvESJEoFSp01DadGnF6SgpySecD928cZ0uX74k/rlM796+tWrh/tvIkSOL56eXfUiWLDl9+PCBbty4QVfE869euSzvg/vU0CIcEyVOTGnSpBXvJDXFjx+ffH19BYvrgsMVyeTzp0/BRWFY+6hRo1KGjBkpffoMlDhJErp16xYdOXyIrl29atgzXTEcmtm6Mk7UBQEQAAEQcB8BCMcvLEuVLk0tvv3O7lF6XPX27ds05++ZtGXzJve9BWEpT9588nztdOnSUZiwYe3a9hNC8tixozRt6pQgixCzCkcWWy1atqJyFSpQ9OjR7XLgQhbye3bvpr9mTKd79+45rG90hQQJE1JnceRl/gIFycfHR/dxnz9/pufPn9O+Pbtp3Ngx9EkjfosWK07df+ip244z/T76UbNGDYP0x0NoZ2sTCgpAAARAAAQ8RuCrF448EzRp6jSKGTOmS9BfiP/wd+vSia5fu+ZSO+vK9Rs0pAaNm7j8fMXO/fv36PfJk2nXzh1KllPfZhOOPMPKgiljpkwUJkwYp8ZgXenWzZtSTO/bu8e6yPD7ePHi08ChQylz5iwuPev1q1c0ZNBAOnzooGzX/NuWxP/YS7WqVaEXL17YqxKgLLSzDTAY3IAACIAACIQoga9aOObImYtGj/0f+YQPH6SX8PHjRxrQry8d2L/P5fZhxaziuAkTKVv2HC631WuwYvkymjThV70i3TwzCcdqNWpSFzFL52imVXcgOpmrV66gCePH6ZQYk8XL6JPFHx8RI0UK8gN279pJg/r/LEWjO4VjaGcbZKBoCAIgAAIgYAiBr1Y4Nm3UgObMnR9sscLLjl07daAzp087/YJixopF02f8RXHjxXO6jTMVz549Q907dyI/Pz+H1c0iHAcMHkIlSpZy2F9XK/B+UH4vb968cbWpS/Vz5c5No8aIPz5sLEu7Ymy22ALByV3CMbSzdYUd6oIACIAACHiGwFcrHHmJOWWqVG6hzMvWtWtWJ2ccNaKIPXyLli6nSMGYnbLXaXYaafPdt/aqyDIzCMfxEydR9hzumXHVG/CTJ0+oQd3aTr0XvfaO8mLHjk0LliyjcOHCOarqVDn/EbJz+3Yq+c03dus7s1Qd2tnaBYBCEAABEACBECPw1QpHdxPfsG4tjR39i0OzvDzNS+RGphnTp9GCeXPtPiKkhSMvoXbt3sNuH91RuHXzZho5fKg7TAWy8dvU313e0xjISBAyHAlHb2AbBCxoAgIgAAIg4AECEI5WkNljmWeQXN1vx+0qlitjZS3gbemyZanvzwMCZtq4Y2/hkydP0p3bt6SzSJKkScXsXE7icEGOEs98Nmvc0K6XcUgKR/Y8njNvgdMzdbyX9Mnjx/Ts2TOKFi0axYkb1ykOCqfevXqqzidKXnC/2ft58LDhLpvh3wn/toIzS2lPOHoDW5ehogEIgAAIgIDHCEA4CtSvX7+mJYsW0rx/5qj7A5MlT07Fipegb1t+57TzzMCf+4nQMLt0Xx7HZly2ag2Fd+CIw/sTJ0+cQKtXrdS1U6duPWrfoaNDYetoyTokhePfc+YS83WUWGQtW7pEhNr5Q30vSpsatWpRy1ZtpJBU8mx9vxUivFrlim5dsl4u3mX0GDFsPTJAvq/vE/r7r79o4/p16jg4NE6rNm2pcpWqTv++FKO1q1eV4XyUe+23N7DVjgfXIAACIAAC5iLw1QvHly9fUpMG9eiVCIuil3gf26+TplBSMePnKB0/dox6du+qW61Js+ZC6LTWLVMyWeB837a1CDh+Q8nS/c6QMRNNnDTZoeCwNzMVUsKRg07/M3+h7ri0mcyidcsWdO/uXW12gGueff1r1hxim47S6FEjaNOGDY6qOVXOXtQzZs5yqu6KZUtpkvhDwFZyZQyKDVvC0RvYKmPENwiAAAiAgDkJfNXCkU9kadmsid0lXX5tHDpn9boNDsOtsJNMLTEbpJdmCQ9uR+Kza6eOdPrUSb3mgfLKla9AP/XtFyhfmzF3zmya+ecMbZZ6HVLCseePP1HFylXUfuhd8NJ004b16eHDh3rFAfLYm3mhcDZyFIfz0sWL1L5NqwBtg3rTo9ePcqbQUXveZ8r7TR0lHgPPFDojgNmWLeHoDWwdsUI5CIAACIBAyBL4aoUje7B27tCezp0969Qb4EDdbb/vYLeurX2OfALK8tVr7bbloNX9+/axW8e6kGfbUqRMaZ2t3j+4f58ai9lUvRRSwnHFmnUOl5edFVzKuPiUlpGjxyi3ut/8vqtUKEfv37/XLXclc9GyFRQnThy7TR4+eECN6te1W0dbyIHoZ3N4KCeCn9sSjt7AVssE1yAAAiAAAuYj8NUKRz57ul2r71x6I2s2bLIbRofFSblvSgayyUvUvFRtL7X6trnLp9DwPr/OXbvbM0s1qlTSXYYPCeHIS+xTpk232192CqoahP2Izuztm/77VFq0YL7d5zsq5L2JK9eud1SNunT83qXYnmyw34CB9E1p+w5WXE9POHoDWx4bEgiAAAiAgLkJfLXCccqkibRsyRKX3o6jGT42prevcOLkqZQla1abz+J9ljWrVrZZbquA98et3bjZ7iyVreXvkBCOjZs2o+9at7E1HJl/6OAB6vNjL7t19Ao5aLajwNl79+wRJ/24Nqtr/ays2bLTBLG/1F4K6vtkhyEWwI6SnnD0BraOxo1yEAABEACBkCfw1QrHTt+3c3qZWnlNw0aOokKFiyi3ut+8NMxLxNrkzP7G7du2aZs4fV2qdGm7dTm2JMeYtE4hIRx/6PUTVapif3/jiKFDaNvWLdbddXjPZ0UvWLLUbr3z585Rx/Zt7dZxVFi2XHnq3e9nu9WCsu1AMbhK7KWNEiWKcqv7rSccvYGt7mCRCQIgAAIgYCoCX61wrC6WcF/b8KS29Ybatv+e6jdsZKtY5usJR1dCt9g1HoRCWw4yISEc+Wi+fPnz2x1FxbKl1ZA1divqFK7btMVufMf79+8JD/r6Oi2dz3LGO378/8bS2tWrnDeqqfnrb5Mcnl+uJxy9ga0GAy5BAARAAARMSuCrFY5lS5Vw+ZWwaGTxaC/pCccNm7c6DJ1jz2ZwymydnBISwvGPv/6m1GnS2ByOrT2iNhtYFXCczBh2YivyHwr8B0NwUvcfelKVatXtmujd6wcRcPyQ3Tq2CvsPGkwlS9k/clBPOHoDW1tMkA8CIAACIGAeAhCOLryLoArHzf/usLsP0YUuuFyVBQwLGesUEsKRz+jmU19sJQ6PVMnB6Tu22nL+3IWLKGHCRDarcHB1ntEMThoyfAQVKVrMrolvRYinWzdv2q1jq7Bj5y5Uq459b2w94egNbG0xQT4IgAAIgIB5CEA4uvAugioct2zf6cJT3Fv1yOFD9FNPcwjHxctXUOzYtsPYcKicyuXLBhkAH2PIYW1sJY4PWaGM/dk8W22VfGdmBFs2b+owiLtiz/q7U5euVLN2HevsAPd6DljewDbAIHEDAiAAAiBgSgIQji68lqAKR0ezey50weWqZhKOM2f/Q8lTpLA5Bj5ju1zpUjbLHRUsWb6SYomTfmwlPo2masXytoqdyu/QqQvVrmt/RpC9wtk7PChpwOAhVKJkKbtN9WYcvYGt3UGjEARAAARAwBQEIBxdeA1BFY6r128kPqvaVuLwLatXrrBVHKz8vbt309mzZwLZcCRm9+/bSz/36R2oHWc4EinPnj2jOjWqBWr7v18nUM5cuQPlazOCsvdUae8ozuaTx4+pfp1aSvUgffNZ4d936my37W8TxtPK5cvt1rFV6Ch0E7fTE47ewNYWE+SDAAiAAAiYhwCEowvvIqjCkcPEcLgYW8nWrKCt+u7IDwnhyGFsOJyNvdSjaxc68d9xe1V0yyJGikRrRYB2e+nK5cvUtlVLe1UclhUtVpwGDxtut15QY1GyUUfil+voCUdvYMtjQwIBEAABEDA3AQhHF95PUIXjtD//orRp09l8kjvCxNg0bqMgJISjMyfobN60kX4ZYV+Y6Q2pctVq1KNnL70iNc+Wo5BawYmLNGnT0vQ/Z9qt+fr1a6ouTr9xNaVKnZpmzJzlsJmecPQGtg4HjgogAAIgAAIhTgDC0YVXEFTh6My+NT2HBxe65nLVkBCO7I3MXsn20pMnT6h+7Zr2quiWObNUu3TxIpo6eZJue2czw4QNSxxeKVy4cHab9OzelY4fO2a3jnUhz2TyjKajpCccvYGto3GjHARAAARAIOQJQDi68A6CKhyzZc9BHNjZXlowby7NmD7NXhXdsq49fqDEiRPrlrEX8eAB/Ym9la1TSAhH7oMzMS25z7t27rDuss37RIkS0Zz5Cx2GPGpYtw49evTQph1nC37/409Klz693equ7qdkpyE+0jJMmDB27XKhnnDkfG9gy+NAAgEQAAEQMC8BCEcX3k1QhSM/wpGDDIu8RvXrEgsOZxMf38dHzdlLzRo3pLt37gSqElLC8Zex/6O8+eyfHvPi+XOqVb1qoD7byvht6u+UOXMWW8Uy/+GDB5KvvUq8DzVqtKh0/do1e9XIGQcZNrBi2VKaNHGCXVtcyGeOz5433+4+WK0RW8LRzGy1/cc1CIAACIBA6CUA4ejCuwuOcHQm/t+9u3fpuxbNdGcIrbvJJ6QsFAG1w4cPb12k3vOZ2XySjV4KKeGYO08eGjPuV70uBci7dPEifd+uDXGIHnvJmZNcuL2toxe5jGdtK1WuQj4+PnxLfIINP58Dp7OHuHViD3k+U9qZ2cF1a9fQuDGjrU2o92yLZxrjJ0ig5jm6sCUczcjW0VhQDgIgAAIgELoIQDi68L6CIxx5aZOXOB2l52K2rfP37ej27ds2q1arUZP4hBFF6NiqOHXSb7R0yWLd4pASjtwZFl1RokTR7Zc2kxkMHvAzsTe0dYoZKxb1EV7a+fIXsC4KdM9CsGbVyvRK52zyCZOmUNZs2QK14Yx3Iu5jPRG+R+9M8zHjxlPuPHl121ln8gzqnNl/09o1a6RNLo8t4k22atOWylWo6HC/pLU9W8KR65mJrXW/cQ8CIAACIBD6CUA4uvAOgyMc+THOHFendOfG9etCaKymy5cuCuHymjJmykRZs2enbNmyUyIbexqVtvzNx+vxKSyfbMzYhaRwLFykKA0dMVLbXbvXzOL8+XPERxLykj57qGfOksWpGT82bGu2sXSZstS3/wC7z7bliR01alRaunK1Q/GuZ5yFrDOzlXptOc+ecDQLW1t9Rz4IgAAIgEDoJgDh6ML7C65w5BnCZUJsRBGiw+g0888ZUjDZek5ICkfu08AhQ6l4iZK2uue2fD4zms+O1ksjfhlNBQoW0itS8+yF1nHm96AacuOFIw98M7B143BhCgRAAARAwEQEIBxdeBnOCAXeU8h7C22l7Dly0PiJ9j2sbbV1Nn/D+nU09pdRdquHtHAMK8LaLF2xiqKLvZpGJZ515fdhy+Fo1j/zKGmyZHYfz7OD5b6xLXAnTZ1GmTJntmvD2ULu70bx7qpUq263iSPhaAa2dgeAQhAAARAAgVBLAMLRhVfnDuHIj+Ng1d2FQwbHBHR34tiBHEPQUQpp4cj94yX3yb9Pp5gxYzrqrsvlvKzd58eedmMpOuON7SfsVCxXxu7znZm5tGvgS2H/vn0ofYYM1Pxb+6fbOBKObC6k2TozXtQBARAAARAIfQQgHF14Z+4SjvxIdpbhmUd7Z1i70DVZ9djRo/Rjzx4OPZG5shmEI/eDl+/Zy5pnYt2V+CSeDu3a0rOnT+2abPt9B6rfoKHdOhzKiEMaOUrdevSkqtXtzxTasvHixQvpec2xK1k0ukM48rNCkq2tsSIfBEAABEAgdBOAcHTh/blTOPJj2cFilIhr6CgGoaMusvPIqOHD6MKF846qquVmEY5Kh1gsNW7SlHzshBdS6tr65tA9O7Zvp+HDhjglnjmU0bJVa+yKd1fOzk6cJAl16dad8ok4lc7MJvPS9ML584j3oyqJ21evWUu51f225xyj1yAk2Or1A3kgAAIgAAKhn4BXCkdH5/Y62rdm67Xy3jOOG2gv1alZ3eFMl3V7Di3DoVnYyzdSpEjWxTbveS/luLFj6PChgzbr2CpYt2mLDDxtq3zbli00QggwvTR1+gy5pKpXxnnOBNvWa8tiq3KVqnIW0NHeQ217X98ntHrlSuLTd/ROydHWtb7OkCEjceBs672W7L09bepkWrZkiXUTh/f8B0GdevWJz7XmU33ixo1HkUS8xpcvX9DtW7eEp/xlOnPmFB3Yt4/evHkTwN7EyVMpS9asAfKsb8qXLmXTW966rnIfEmyVZ+MbBEAABEDAewh4pXAMza+HjyfkfW7JkycnnsHi00zevntL4X3CEy9p+oqznA8fPki7duwIJDpC87it+x4/fnzKlTsPpUiZkpIkTUoJEiaUVZjDA3EKzN07t+nGjRt06uQJhye9WNu2vmdnkvIVK1E2Ee7o/bt3dO/ePdqyeZNNpxrr9u685xA/9vZ88t7NSg72XDrqjyfZOuoLykEABEAABEIXAQjH0PW+0FsTEMgqYmnWrV/fZk+ei9Nmxv9vrM1yWwX5CxSkkaPH2CqW+a6egW3XGApBAARAAARAwEUCEI4uAkN1EOjUtRvVrFXbLohVK5bTxF/H262jLYwotigsE+GJ+NteOnXqJHXr1NFeFZSBAAiAAAiAgGEEIBwNQwvD3kqAQ938M3+hw+Ht3LGdRgwdIk/xsVeZnaMGDR1GcePFs1dNlnXv0olOnjjhsB4qgAAIgAAIgIARBCAcjaAKm15PYNGyFRQnThyH4+Q9iUePHKZVK1bQ2TOnic8iZ0eVNGnSysDhZcqWpRw5czm0wxV472XThraXyJ0ygkogAAIgAAIgEAwCEI7BgIemXy8BZ/YjupvOoAE/0+6dO91tFvZAAARAAARAwGkCEI5Oo0JFEAhI4Ke+/ahc+QoBMw26W7p4EU2dbOxRlQZ1HWZBAARAAAS8iACEoxe9TAzFswR4yXnkL6MpX/4Chj5404YNNHrUCEOfAeMgAAIgAAIg4AwBCEdnKKEOCNgh8O13rahp8xZ2agStiE/CWbhgPs2YPi1oBtAKBEAABEAABNxMAMLRzUBh7uskkDJVKvqh108OT31xls7Zs2doQN8+5Ovr62wT1AMBEAABEAABwwlAOBqOGA/4mggkFafctGrbjrLnyEGxYzv2utayeSJOBdq/by/xfsbr165pi3ANAiAAAiAAAqYgAOFoiteATngjAQ7mXaJESUqdJg3FihWbYseJTdGjxxDnab+TZ2o/evSIHj18KMPs7Nu7x+Uzzr2RGcYEAiAAAiBgbgIQjuZ+P+gdCIAACIAACIAACJiGAISjaV4FOgICIAACIAACIAAC5iYA4Wju94PegQAIgAAIgAAIgIBpCEA4muZVoCMgAAIgAAIgAAIgYG4CEI7mfj/oHQiAAAiAAAiAAAiYhgCEo2leBToCAiAAAiAAAiAAAuYmAOFo7veD3oEACIAACIAACICAaQhAOJrmVaAjIAACIAACIAACIGBuAhCO5n4/6B0IgAAIgAAIgAAImIYAhKNpXgU6AgIgAAIgAAIgAALmJgDhaO73g96BAAiAAAiAAAiAgGkIQDia5lWgIyAAAiAAAiAAAiBgbgIQjuZ+P+gdCIAACIAACIAACJiGAISjaV4FOgICIAACIAACIAAC5iYA4Wju94PegQAIgAAIgAAIgIBpCEA4muZVoCMgAAIgAAIgAAIgYG4CEI7mfj/oHQiAAAiAAAiAAAiYhgCEo2leBToCAiAAAiAAAiAAAuYmAOFo7veD3oEACIAACIAACICAaQhAOJrmVaAjIAACIAACIAACIGBuAhCO5n4/6B0IgAAIgAAIgAAImIYAhKNpXgU6AgIgAAIgAAIgAALmJgDhaO73g96BAAiAAAiAAAiAgGkIeI1wjBc/gWmgoiMgAAIgAAIgAAIgEBwCjx4+CE5zw9pCOBqGFoZBAARAAARAAARAIGgEIByDxg2tQAAEQAAEQAAEQAAETELAa2YcTcIT3QABEAABEAABEAABryUA4ei1rxYDAwEQAAEQAAEQAAH3EoBwdC9PWAMBEAABEAABEAABryUA4ei1rxYDAwEQAAEQAAEQAAH3EoBwdC9PWAMBEAABEAABEAABryUA4ei1rxYDAwEQAAEQAAEQAAH3EoBwdC9PWAMBEAABEAABEAABryUA4ei1rxYDAwEQAAEQAAEQAAH3EoBwdC9PWAMBEAABEAABEAABryUA4ei1rxYDAwEQAAEQAAEQAAH3EoBwdC9PWAMBEAABEAABEAABryUA4ei1rxYDAwEQAAEQAAEQAAH3EoBwdC9PWAMBEAABEAABEAABryUA4ei1rxYDAwEQAAEQAAEQAAH3EoBwdC9PWAMBEAABEAABEAABryUA4ei1rxYDAwEQAAEQAAEQAAH3EoBwdC9PWAMBEAABEAABEAABryUA4ei1rxYDAwEQAAEQAAEQAAH3EoBwdC9PWAMBEAABEAABEAABryUA4ei1rxYDAwEQAAEQAAEQAAH3EoBwdC9PWAMBEAABEAABEAABryUA4ei1rxYDAwEQAAEQAAEQAAH3EoBwdC9PWAMBEAABEAABEAABryUA4ei1rxYDAwEQAAEQAAEQAAH3EoBwdC9PWAMBEAABEAABEAABryUA4ei1rxYDAwEQAAEQAAEQAAH3EoBwdC9PWAMBEAABEAABEAABryUA4ei1rxYDAwEQAAEQAAEQAAH3EoBwdC9PWAMBEAABEAABEAABryUA4ei1rxYDAwEQAAEQAAEQAAH3EoBwdC9PWAMBEAABEAABEAABryXwVQjHMGHDUrhw4Shc2HDE12HChPHaF4qBgQAIgAAIgAAImJPA58+f6fOnT/Tx00f6+PGjvDZnT233yquFI4vE8D7hKZyPj20CKAEBEAABEAABEACBECDw0c+PPvh9CFUC0muFo48Qi+EjRAyBnwEeCQIgAAIgAAIgAALOE/jw/h35CREZGpJXCkef8OEpfPgIoYE/+ggCIAACIAACIAAC9OHDe/L78MH0JLxOOGKm0fS/OXQQBEAABEAABEBAh0BomHn0KuHIexojRYqs8yqQBQIgAAIgAAIgAALmJ/D27RtT73n0KuEYQexphCOM+f+lQA9BAARAAARAAAT0CbDDzHux59GsyWuEI2YbzfoTQ79AAARAAARAAARcIWDmWUevEY5wiHHlJ4m6IAACIAACIAACZiVgZkcZrxGOESNGorAiyDcSCIAACIAACIAACIRmAp9EcPB3796acgheIxwjRY6CE2FM+RNDp0AABEAABEAABFwhwCfMvH3z2pUmHqvrNcIxcpSoHoOGB4EACIAACIAACICAkQTevH5lpPkg24ZwDDI6NAQBEAABEAABEAABYwhAOBrDVbWKGUcVBS5AAARAAARAAARCOQEIR4NfIISjwYBhHgRAAARAAARAwGMEIBwNRg3haDBgmAcBEAABEAABEPAYAQhHg1FDOBoMGOZBAARAAARAAAQ8RgDC0WDUEI4GA4Z5EAABEAABEAABjxGAcDQYNYSjwYBhHgRAAARAAARAwGMEIBwNRg3haDBgmAcBEAABEAABEPAYAQhHg1FDOBoMGOZBAARAAARAAAQ8RgDC0WDUEI4GA4Z5EAABEAABEAABjxGAcDQYNYSjwYBhHgRAAARAAARAwGMEIBwNRg3haDBgmAcBEAABEAABEPAYAQhHg1FDOBoMGOZBAARAAARAAAQ8RgDC0WDUEI4GA4Z5EAABEAABEAABjxGAcDQYNYSjwYBhHgRAAARAAARAwGMEIBwNRg3haDBgmAcBEAABEAABEPAYAQhHg1FDOBoMGOZBAARAAARAAAQ8RgDC0WDUEI4GA4Z5EAABEAABEAABjxGAcDQYNYSjwYBhHgRAAARAAARAwGMEIBwNRg3haDBgmAcBEAABEAABEPAYAQhHg1FDOBoMGOZBAARAAARAAAQ8RgDC0WDUEI4GA4Z5EAABEAABEAABjxGAcDQYNYSjwYBhHgRAAARAAARAwGMEIBwNRg3haDBgmAcBEAABEAABEPAYAQhHg1FDOBoMGOZBAARAAARAAAQ8RgDC0WDUEI4GA4Z5EAABEAABEAABjxGAcDQYNYSjwYBhHgRAAARAAARAwGMEIBwNRg3haDBgmAcBEAABEAABEPAYAQhHg1FDOLoX8PYapSlz7Bjk9+kzZZi/ll598HPvA2AtxAgM6t+H2rX5Tj5/wODh9Meff4dYX/BgEAABEAABfQIQjvpc3JYL4eg2lNLQ7lplKH3M6PI647y19PT9B/c+ANZCjMCYUcOoedNG8vlTfv+DBg8bFWJ9wYNBAARAAAT0CUA46nNxWy6Eo9tQSkMQju7laSZrEI5mehvoCwiAAAjoE4Bw1OfitlwIR7ehlIYgHN3L00zWShQvSq1bNpddmjlrLv27Y6eZuoe+gAAIgAAICAIQjgb/DCAc3QsYwtG9PGENBEAABEAABFwhAOHoCq0g1DWLcIwbKSIljRpZjuCs73P5nS9+bCqeJD59/ER04MFjOvbI16GzSRjRMme8WJQldkxKHi0KRY/gQxeevqDTT57TuafPHbbXIowa3ocyxYohbMWgjLGjk+/bD3Tl+UvafucB+b57r62qXjsjHLPGiUnhwnBPie6+fkMP37xT2/OFO8bANthJp3CieJQyWlQ6/PAJ7b33iB69fUeJo0SiSD7h6J0Ae+fVmwDP1t6wjZTRo1LOuLEoh2D6+sNH+u+xLx0V7+HJW/3xa9sH5TptmtSUNm0aevXqFd26dZvaCmeUNKlT0eq162nx4mXit/CJ6tWpSdWqVKInvk9p7vyFdODgYd1HhQ0bliqUL0MF8+ejVClTUvTo0ejchYt04MAh2rVnL/mK9vZS1KhRKHOmjLpVTpw8Te/f22YQIUIEKlWyuGx7/vwFun7jJsWPH4/q1q5JpUoUo/sPHtKu3Xtp8dLluvaRCQIgAAIgEDQCEI5B4+Z0K7MIx5mlC1LlFIllvxts2kt/lMpPMSKEDzCOdx8/Up2Ne+jQgycB8pWbQfmzUfMMqYgFn63UY+8xmnvhuq1iNb9V5jQ0JH928gnL8ilwWnlNiJrthwIVOBKOowvnpBYZU8t2PJ6yq7dLYasYcscYoonxLy5flPII4W2deu49Tm2ypKWMsSwOPAn/XmFdRd4nESJ+dplClF2IXL3U98AJ+vPsFb2iYOUdP7yXEidKSJ+EQGSRGN7H/13u3rOP/Pz8VEHGD/r8+TO169iVVq5aG+C5C+f+TcWKFiEfIZBtpWl//EXsHW0r1ahehaZPmahbPGHSVBoxaqxuGWd27dyB+v70gyxftmIVhQ8fXopd6waXr1ylilVq0fMXL6yLcA8CIAACIBAEAhCOQYDmShOzCMe/hXCs9EU4avvPYW2sxVu9TXto552H2mry+lDd8pRCzDJqE4fDsRaS8y5ep+57jmmrqdfhxSzVqkrFA4kuvX7oiS5bwpHl58Tieal+2uTyWc+Ft3X5Ndvp6vNX6rP5IrhjiCyE0t5aZYmFnzNJbwzFE8enBeWE6NKIZr3xz7lwjViIujOdOLqPEiZI4JJJnpnMW6hEgDZXzp8knjHUJj+/j4GE5NFjx6lStTraauq1PeHoyKu6e9eO1LtXD2nrzZs3FDmy7fexeeu/1LRFa/W5uAABEAABEAg6AQjHoLNzqqVZheONl6+poZh5vCyWhuNHjkjTSuanomLZlROLrULLNgcaH4suH7EEPOX0Jdp44y7dEsuwn8SMFC8L10+XnMYWzq2KoW9WbqMzX5bEtYa65chIffJkVrNGHj1L/wiBxEu8LCqzxolBwwvmoHzx45Ce6NITjmHF86eL/ldLlUTa5WVunmm8JcZonYI7hk7Z0lP/fFmlWRZ7Tbbso113H1LEcGGpU/b09EPOTAEeaT2GCKLeifoVKXbECLIeL2+zyL724pVkWy1VUpokBLAiKiuv3UlHxDK4u5JWOE6e+gdNmjqNli+eR5kyZpCP4BlGFnp+fh9o1bKFFCVKFDnrmDx1JvogZiOVxMIxrBC+PNs3e858Onn6DH0UM7w8g9nnp57UoX1rCvNlu0DDJi11HV14uTlhQn8R+3PvXlSzRlX5CFeEIzdg0dpvwGCav3CJ6HNk+mv6FCpSuKC0xbOraTLmIBaYSCAAAiAAAsEjAOEYPH4OW5tROLLgybpgXYAYiCwIj9avQAkjR5Jj4iXr3UIQaVO6mNHo0rOX2qwA1x2ypaOB+bLJvBlimbWfWG7VJrZ9tF4FVRTxkjnvZ9RLZZImpK237wcqshaOL8WM599lClK5ZIlk3ftv3lK5VduJv/VScMbAwvZ8o8rqDGutDbvlvkbtc6aUyEt10lhmPTnfWjj+lDsz9chp2de3R4jG2sKGdSotxj6/XGGZffLJMyq76l/rKkG+1wrH9JlzySXc6lUr0x+//yZtPnz4iLLltgiuOTOnU/lyZWR+gSKl5D5C5cEFC+SzufeR60wcP4Ya1Kstq+/Zu59q12+iNLX57Uo4Hu2MIxts1rItbdq8NYDtaxdPqTOR/HzuBxIIgAAIgEDwCEA4Bo+fw9ZmFI5Lr9ykDjuPBOp71xwZqG+eLDJ/5rmr1Hv/f4Hq2MvgfX07a1qEBou+xpv3BajOe/+GFcgu89iZpIqYTXM1aYVj9oUbiIUaL/1yui1mQMuJmcbHYvYyqMneGHLHi00bqpaUpvlZeRZvDPQY3rO4pfo3ar61cDwnhKcy25hbtLflPMMclX2SSWetJD8xE+iOpAhHnoVLnCK9NJkhQzratc0yllNi5rBMhWoyf8TQgdTqS3icarXq08FDgX8ztvpUrGhhWrrwH1l89dp1KlSstK2qan5QheOTJ76UOUc+1Y5ywTOpyqzjT30H0N+z5ypF+AYBEAABEAgiAQjHIIJztpkZhWP7HYdp+dVbgYaQS3j2bqxaSuZvE8KvkZXwUxoUTBhXLmuzVzX/w8u0nCKIGblcQlxx2n//MdVYv0teKx9ji+SiZsK5hlPHXUdoyeWb8tqVD61w5GX2tDGiyeZ6s6j27AZlDDVSJ5VL4mzX3v7D281rqLOqWuHIM5a3mldXu8VL3Eri5XZOlk/huS48rZW9o2XEjOMpMfPojqQIxw8fPlAysfzMifc8cj6nw0eOUZUadeV1vz69qEvH9vL6uzYdaO36wEK5ds3qVKliOUqWNAkliB+ffL44ToULG056OXPju/fuU658RaQdex9BFY629lFO+W0c1alVQz7ytynTaNiI0fYejzIQAAEQAAEnCEA4OgEpOFXMKBz1llh5jBxG5rjYf8eJRVmRZVvktfKRTcym8f47DkPjKOkJx9WVi1OBBHFl06Du3dMKR+s+9Nl/gv46Z98TOThj0M7I/nLsLI3777x1F+T96YaVKJ4If8RJKxy1s5my0MkPe0v6TppQqynCkff7pUpv2VbATi68Z5ETe1bXadBUXmuXgzt17RkgtE3Z0qVo8sT/UaxYsWRdex9GC0cOJdS6XadAXRj7y3Bq1qShzJ86bQYNGjoyUB1kgAAIgAAIuEYAwtE1Xi7XNqNwLC1msE7rzGDxDNeVJlXlGNnBJNP8dep4OQbkvtplxexiODXvoIj9eFM4oDwRdXkllcPUNE6fUpYfF7EIK6zZodbli21iCZdjLHIquHSzdAiRNy58WAtHXjJW4lOymRIrttJ5EVdSLwV3DLx/k/dxchpw6CRNO31Z7zF0okFFda+oVjiWEDEzOYwPJ/b6XuzkjCtvG7j4TH9Muh2wk6knHNkjmfcDcuLYh3UbNpPX3bp0pD4/WjyXtcIxW9YstHn9SuEcY5lp5sr37t+nhw8f07Nnz6QzDTuo5M2TW9rR7puUGTY+gjrjyA4633fqHsjquDEjqEmjBjIfwjEQHmSAAAiAQJAIQDgGCZvzjcwoHOsKxxftMqkyGhZW7LzCicUXizAlDSuYndpkTitv/3v8lBpu3hsoSHX6mNGJhR0nPeG4pEJRdT9iTbGMvU8sZ7uatMJxzfU7xLEeJxTLQ/W+hOHhPYOFxEwpx3C0TsEdw3eZ0tDIQjmk2cmnLtKQw6etHyHvWXwry8xa4ZhKBPs+UKecrGNrj6SuQTdmukM48t5F3sPI6dGjx1SxWm26eTPg1odCBfPTyqULZB0IR4kBHyAAAiDgFQQgHA1+jWYUjt32HKX5F28EGnn+BHFoTWVLvL7Nt+5R0y371TosKJWZPXZKeaDjtVw+eSKaI4Jac9ITjhxmp7UI/M2J4xPyPkFXk1Y4ZhQzok/FbCfHVmRBpniELxIzeZ3FHkrrFNwxsKf3vC/ezutEOKKW2w5YP0LOyN5oZnEu4UKtcOSwRXdaWPbcsbBNMWd1oPZGZ7hDOF69cFKG6eG+FilRljjItnVqJ06kGTKwn8yGcLSmg3sQAAEQCL0EIBwNfndmFI56Hs+MgU9V+T6rZSnWOpzOxcZV5Ekz7ISSdPZKXWraION6wpEdY9hBhpOtWJG6hjWZAYTjvLVqSCFrb+Y2YiZylTh9RpuCO4ZkwhHoiIhlyYk5ZJi/NtARiw3SpaCJYgZUSVrhyHnaZWwOxcMheTyZ3CEcb107L+M1cszHRMktvxfrMezevonSp7PMUEM4WtPBPQiAAAiEXgIQjga/OzMKRx4yB/jWnqoSSxw/yDNyyhIrh7U5IZaklaTdn8hxBTm+oDax0ws7vyhJTziy7ZPC+UZ5hq19gux93E6E7pkkloOtky3hyPW6ZM9A/fJawgmxsCuwdJMM0aPYcMcYVopTbwoJr3JOs85fpR/3/aeYp5iC4fYapQOcKmMtHLXL3eyAxJz59B29xPtB2SYHCXdXcodwPHfyCMWObXGK4RNZ+GQWbapVsxr9PulXNQvCUUWBCxAAARAI9QQgHA1+hWYVjixWOu8+SkdFPMV0Ym/iuKK51eMEjz70pUprAzq2aJeZ2XFmqjg9ZvmVW3JptnLKxGr8RwWnnnDkMusZOd6n+Ldw/jj39Ln0RM4hwtD0FkGy+Ug/a9HF7e0JRw5ls65KSfU4w7Pi5BoOZfORPXdEcscYrAUy7xVdefW2dAziOJXKcr58oPiwHgOH3eEjC1PHiCqrsJPMzwdPivfgS4/fvaM00aNR9rgx5Xnb7L2+Qthut+OQYi7Y3+4QjssWzaWiRSxbEjisz9p1G4mdTyKJAO8tmjUmDtGjTXrCMZxwsqpaxeLBr9RtL5a38+S2zEhv/XcHLVy8VCmS3zt37SFfX8sfM1qPbzjHBMCEGxAAARAwlACEo6F4icwoHHl/ndY7WouAyyqJwNzWXtc883VMMyOpbaNcrxCxIWumTiZvbQlHLhxTOBc1z5hK1rP3YS26uK494cjlCYR4OVy3nDq+Kacu0eDDFo9hd41Be0IOP1ObeBYxrIjGqAhDvTFwWJ7FwlFI2ZOpbW99bUbhyHEfjx7cHehcam3fT585S1mzWI6W1BOOjRvWo/FjR2mbOLxu074zrVpj8fSHcHSICxVAAARAwBACEI6GYPU3akbhWFGEyRkvZhit4zHy0nXdTXt0z3jmEfFxfVNK5JPBqf1HaNnv96c4YnDksTN0ranFMcSecOS2RcS52JNFTEieWbROPAvH52GP14mTyEvBSr8zavY4am1UTJGYZpW2HJvH+dqldXeNgZ/BRwdmjR1TBvvmWdidYvaRj1nkIOo882hvPyifWT1AnHndMmMaNVi4dgws4Hk29o8zV+iYCG3kruSOGUfuCx85yOdBx4tnWbZX+sf7HjmkT6u2Heni2eMyW1c4NqpP48e4FlexSfNWtGXbdmnTGeE4XJx80/rLyTe/TpxMI0ePU7qJbxAAARAAgSASgHAMIjhnm5lROCr7G+NEikD54sehj2I/4IknT+nhm3dODYvDymT6EgT8kogvaO/8akcGeb9j5lgxKIOYhWPxdUXM2F0U52F/+rK87Kh9UMvdNQZeeuaZTO67ktirmmd0b4gYl/mXbFKybX6zyMwi9jPGF0HDOZzQrVevBYdXhjOw2SEXCnhpmUVkGMHhyNFjds+vdsEsqoIACIAACJiUAISjwS/GzMLR4KF/leb5ZJqtX86q3n7nAfGpL0ggAAIgAAIg4C0EIBwNfpMQjgYDDgHzvMfx8ANf4pNztIlPzllWsZi6lK8XEkhbH9cgAAIgAAIgENoIQDga/MYgHA0GHALmzzWqTLEjRqBHb9/JOIw3XrymROKc7woiAHoMsWzNiT26S63cFgK9wyNBAARAAARAwDgCEI7GsZWWIRwNBhwC5hXhaOvRHFqn1faDcr+irTrIBwEQAAEQAIHQSADC0eC3Zhbh2C5rWiqZJIEcbbfdx3SPDDQYhdeY51iTpcXxgwUTxqHEUSITOxndFU4tZ8QsI8d1XCbiWyKBAAiAAAiAgDcSgHA0+K2aRTgaPEyYBwEQAAEQAAEQ+AoIQDga/JIhHA0GDPMgAAIgAAIgAAIeIwDhaDBqCEeDAcM8CIAACIAACICAxwhAOBqMGsLRYMAwDwIgAAIgAAIg4DECEI4Go4ZwNBgwzIMACIAACIAACHiMAISjwaghHA0GDPMgAAIgAAIgAAIeIwDhaDBqCEeDAcM8CIAACIAACICAxwhAOBqMGsLRYMAwDwIgAAIgAAIg4DECEI4Go4ZwNBgwzIMACIAACIAACHiMAISjwaghHA0GDPMgAAIgAAIgAAIeIwDhaDBqCEeDAcM8CIAACIAACICAxwhAOBqMGsLRYMAwDwIgAAIgAAIg4DECEI4Go4ZwNBgwzIMACIAACIAACHiMAISjwajNLBxTx4hKO2qUlgT+OneVBh06ZTANmHcHgeHLjlDEyFGlqc3zptDGORNVs0MW7qcoMWLJ+90r59CK34erZfYuwoYNR/W6DaMcxStQ5KjRKUyYsGr1ZZMG066Vs9V7M1xUbN6Vyjb6Xnbl3ZtX1K92XrVbJet8R9Va/yjv/T58oN7Vs6tluAABEAABEAgeAQjH4PFz2NrMwjF9zOi0u1YZOYaV125T2+2HHI4HFfwJZIwVnUolTSAzNt64R9devPIvNPBq3KaLqrDbtWI2LZs8WH3amLVnyCdCRHl/fOc6mjW0s1pm76LvzC0UP1lq3SrLpwyhnctn6Za5I7NotSaUPINF3LFIff/ujUOzDXqMpEKV6st6H/38qGeljGqbSi26U/mmndT77uXSqte4AAEQAAEQCB4BCMfg8XPYGsLRIaJQW6FrjgzUN08W2f82QnSvEuLbE8ndwjFn8Yr07YDJsuufP3+mi8f30f3rl+ij33uZt3XBNHr57IlhQxs0fy/FjJdQ2h/UqAg9e3Tf4bMgHB0iQgUQAAEQMIQAhKMhWP2Nmlk4RgvvQx2zpaewYYiOPXpKG27c9e84rhwS8Bbh2LjXGMpfvrYc757Vc2nJxAEOx+7OChCO7qQJWyAAAiBgLAEIR2P5kpmFo8FD93rz3iIcu/y6mFJnzSPf11+D2tPJPZs9+u4gHD2KGw8DARAAgWARgHAMFj7Hjc0mHFNFjyr2xwXu94M37+jVB7/ABV9ysseJKdqFoetiH19WcV0mWUK69fK1nKW8+/otJYgciconT0TpY0ajIw99ad31O+Qnlj21KUW0KBQrYgT68OkTnfV9TtHFjGfRxPGpUMK4dOfVGzr44DGdevwsUDutDeU6ik84yh43FuUQ/ySOEknuLzzx+CmdfvJc2lfq2frm/YkRw4Wjj6KPp588k9Uyx45BJZMkoOSin4/evpN92Xr7Pn36Mo64kSJS0qiRVZPts6alOmmSy/sRR8/Qv7cfqGV88V6M85wYp7tTcJeqY8VPREnTZlW7VbvTAIqTMJm83zDrV7p16YxaxhfXzx4LsFSdpeA3co/lzQsnKWO+YpS7ZFV6cu8m7V41h+6JJW7eK1mselNKmCIdXT5xkP5d/Af5fbAse7M93s8YI45lbyjfN+szniJGsTj7zB/zI716/pSz1fT04V26fTlgn7BUreLBBQiAAAh4lACEo8G4zSYc739bU3fES6/cpA47j+iW5Y4XmzZULSnLrj5/ReyNraR3Hz9S7Q17aFnFolKIKfksuBpv3qfcyu+LjatQjAjhpUBtt/Mw/VOmUIByvmH71dfvogdv3gYqUzLKJE1IM0sXCPA8pcz33XtquHkvHRdL7/bS6YaVKJ4Qgn6fPlPS2Stpeqn8VCNV0kBNWEBmXbBe5rfPmo4G588WqI6tDO5LpvnrbBUHOT+4wrHrhCWUKktup5+vdY7JUawCtRw4RbZ99/qVKvg44/PnTzRnRDdq1vdX1XmH8x/duU7DW1i89/n+5znbKW4ii+Dme0fp7tXzNLpt5QDVIBwD4MANCIAACHiMAISjwahDi3C051WdN34cWlelhENSLMJ8eMPkl1R61b/qbB5nXWlSlaKKWUbrZN3u+fsPVGz5VrqvIx5bZ05DwwvmCGCCxSvPHmpTi20H7O7Z1ArH0cfPqk4uWhvKdcK/V8jLZhlS0dgiuZRsh99mFY7dfltKKTM5Pw6tcMxVojK16P+bw7Gzkw3PUCtpWt+WdO7QTnnb+8+NcjZSKXP0DeHoiBDKQQAEQMBzBCAcDWZtNuEYJ1IEdcRpY0SjNZUtgtBZ4chLyoWWbaE88WLRkgrFVKG48NIN6rr7KPGs3KAvs3Ijj56lX0+cV59nLRxXX7tDP+4/Tk/evqcsYpl4cYWichaQG/x59gr1PXBCbcsX7MxzvlEV9Znc5z77T9BjMSuYRCwh/yFmDfMJkcuJRWeuRRvVZWaZqflQhKMmi6acukQbbt6la2LWk5era6VJRixUFeHIdcOH9Y9v2Dl7evopd2Zpov2Ow7RGLM9bJ16Wd3fqOGYuRYgcRZrdsfQvOvrvavURTXr/jxIkSyPvD21aJpeP1cIvF+F8fChcuPBqNgvJxKkt4Wym92tFl/87oJbxxYf37+RsIl9rhSOHzRlYvxBlK1KOGv84RhWKN86foF8716GGPUdRgfJ1uBkd276WZg/vIq85ZqRPeP/fYd9ZWylmXItX9bDmpejFk0eynvLx8eMH4eEdcBsF2y0qlsM5vXn5nH7v3UKpLvZr5qWa3/8s77ndxG711DJcgAAIgAAIBI8AhGPw+DlsbTbhqO2ws3EctTOO089cpv4HT0oza8UspCLUeHn5wP3H5CNmmW63qCHLF12+SZ13+S9/a4Uj7yssI2Yktbsgef/g0XoVZFuehcw0fy290Oy7ZJHWI6dF4Bx++ISqrLXMYCljYlF3sE45KSI5j5/NfdBL1sKx2rpdco+ldV3ek/lULDnrpZByjtHrS3Dyek5dTUnTWcIKTenVVIbjsWVPKxwvHNtLU39sJqsOXrhP3bc4Z2R3OrptlRSHY9adleU3L56icR0svwtr20FxjrG2gXsQAAEQAAHPEIBwNJiztwnHfmIWcIaYDeQ0tUQ+qi1m5TjlXLSB7gknGU6KQNx88x413bpf5mnz+bqjEHVLdETdykrFpbMM17Febt5W/RvpmMNlzYTdTcK+dWqbJS0NLWAJJr1OhBdqKZas9ZJWONrb36nXVsn72oXj3jXzafEEy8xez9+F+ExrEZ+/tK4gnWSY0/82XKCwYhvBw1tXaUTLsgq6AN8QjgFw4AYEQAAETE0AwtHg1+NtwrH7nmM07+J1Se1/Yr9fU7Hvj1OGeWvpmdibyEkRZfvFDGQNMROpJEVQ8n0W4XDCS8zWSSvGeGaTZziVpDjX8H2y2at0vad5+X1vbYtA4VlN3mepl5Q+clmFNdsdOtPo2dD21ZMBwPX6Epy8oM44srf0qumj5KO1DjcDGxSm508eyHyeceRlaQ7qzcG99RKEox4V5IEACICAOQlAOBr8XrxNOLYTe/lWXL0lqbGTCu8B5KQVcsfEcjPvOfxPhMcpv3q7LOcPrXBMJBxOtMvUSqUG6VLQxGJ55C3PbPIMJ6dwYgn8zpclcHaGSTHHf1+frPDlg51v+Dmc2MkmvRC0ekkrHLWiV6+urbyvXThumD1BPSeb912my2Xxkv+pajb12MBf1pyiCBEj08unj6l/vQK6KCEcden8H9UAACWKSURBVLEgEwRAAARMSQDC0eDX4m3Cse2OQ7TyquVovWEFs1ObzJZzgLXCkfcp8n5FW8JRCYGjh55D4nBoHE5ah53YYq/huUaVZb4jb2Ul5JC95yjC0V4d+TA7H1+9cBQxHzf+85sk1GHMP5Q+V2F53atKFvITDjWcfll9kiJEigLhKGngAwRAAARCPwEIR4PfIYTjdpWwdsYxyayVMvi2WvjlonH6lDS+qCXG4LTTl2nAIYsjDgd2ufclBqU9sRdTxIm8IOJFcrInMCEcJSL5EdSlag4WDuHozxFXIAACIPA1EIBwNPgtQzhuVwlrhWPuxRvlaTFq4ZeLnrkyUS/xDyetIw7f84wjzzxySjN3je5JN5lEWJ8dNUrLOscf+Yr9izvktfUHhKM/EQhHfxa4AgEQAAEQsE8AwtE+n2CXQjhuVxlqhePPwvHlD43ji1JpuxB9fPQfp6Zb9tPmW/6e05uqlaKc4ohBTt32HKX5F2/Ia+1HnzyZqVsOS8ieFWJJvZ1YWtdL7hCOrcT+zhFfgpFzPMm/zlm8zfWeZ+a8kBaOfWdukccUMqOJ3erT1dP+IZzMzA19AwEQAIGvkQCEo8FvHcJxu0pYKxw5kHiR5Vvojd9HtVx7tCE7wKSft474W0laocZHE5ZcuS1AOc9GchxHPtaQEx95yEcf6iV3CMey4rzuuWUt+/qsQw/pPdOseSEtHLX7I/esnktLJg4wKyr0CwRAAAS+egIQjgb/BMwkHHkmj09fURIHAFf2E+6994hGHD2jFMnvmy9fy9iM2gDg7nCOUR7C4XJ45vHai1cyduNvxfKqp8KMOX6Oxop/tIkDfJ8RZ0wrwpDbc8iey89fUrY4MWmc2BuZMHIk2eTisxfy2EJte+21O4RjoiiR6L/6FVWzPMO5VcyQPhIn4XDi87ZPiT6aPYW0cKzQtDNVbNFNYuKjCs8f3kVXTh2WJ8JwJs9A3r4c8LdpdqboHwiAAAh4KwEIR4PfrJmEo+Jt7OyQfzl2lsb9d56MEI5650sr/WIhyGF8XmpOjVHKKqZITH+WKqAKTCVf+822a6zfTcfEHkdbyR3CkW1rQxJZP8uec4513ZC8D2nhGCZMWBqx4hhFihJNF4PeWdW6FZEJAiAAAiBgOAEIR4MRQzhuVwkrS9WvhCDkwODLKhZTZw+VSrzk22r7oQBL0EqZ8s0zpXPKFKLUMaIqWeo3O8TwiTPKKTZqgdWFEmvSnoe2VRObt8UTx6fu4ijEggniBhC0oUU48lnVKTPlkuNz5chBd3lV84M51mPFFl2pcJVGFDFyVPXcay6DcGQKSCAAAiBgDgIQjga/BzMJR4OH6tC8VjiyVzSnVNGjSmcYPpOaZwhZVDqbYom9jFnFEnXcSBGlUDzt+8yl9s4+B/VAAARAAARAAAQsBCAcDf4lQDj6A9YTjv6luAIBEAABEAABEDA7AQhHg98QhKM/YAhHfxa4AgEQAAEQAIHQSADC0eC3BuHoDxjC0Z8FrkAABEAABEAgNBKAcDT4rUE4+gOGcPRngSsQAAEQAAEQCI0EIBwNfmsQjv6AJxbLQ/EiR6THIs5h5104HcSfDK5AAARAAARAIHQQgHA0+D1BOBoMGOZBAARAAARAAAQ8RgDC0WDUEI4GA4Z5EAABEAABEAABjxGAcDQYNYSjwYBhHgRAAARAAARAwGMEIBwNRg3haDBgmAcBEAABEAABEPAYAQhHg1FDOBoMGOZBAARAAARAAAQ8RgDC0WDUEI4GA4Z5EAABEAABEAABjxGAcDQYNYSjwYBhHgRAAARAAARAwGMEIBwNRg3haDBgmAcBEAABEAABEPAYAQhHg1FDOBoMGOZBAARAAARAAAQ8RgDC0WDUEI4GA4Z5EAABEAABEAABjxGAcDQYNYSjwYBhHgRAAARAAARAwGMEIBwNRg3haDBgmAcBEAABEAABEPAYAQhHg1FDOBoMGOZBAARAAARAAAQ8RgDC0WDUEI4GA4Z5EAABEAABEAABjxGAcDQYNYSjwYBhHgRAAARAAARAwGMEIBwNRg3haDBgmAcBEAABEAABEPAYAQhHg1FDOBoMGOZBAARAAARAAAQ8RgDC0WDUEI4GA4Z5EAABEAABEAABjxGAcDQYNYSjwYBhHgRAAARAAARAwGMEIBwNRg3haDBgmAcBEAABEAABEPAYAQhHg1FDOBoMGOZBAARAAARAAAQ8RgDC0WDUEI4GA4Z5EAABEAABEAABjxGAcDQYNYSjwYBhHgRAAARAAARAwGMEIBwNRg3haDBgmAcBEAABEAABEPAYAQhHg1FDOBoMGOZBAARAAARAAAQ8RgDC0WDUEI4GA4Z5EAABEAABEAABjxGAcDQYNYSjwYBhHgRAAARAAARAwGMEIBwNRg3haDBgmAcBEAABEAABEPAYAQhHg1FDOBoMGOZBAARAAARAAAQ8RgDC0WDUEI4GA4Z5EAABEAABEAABjxGAcDQYNYSjwYBhHgRAAARAAARAwGMEIBwNRg3haDBgmAcBEAABEAABEPAYAQhHg1FDOBoMGOZBAARAAARAAAQ8RgDC0WDUEI4GA4Z5EAABEAABEAABjxGAcDQYNYSjwYBhHgRAAARAAARAwGMEIBwNRg3haDBgmAcBEAABEAABEPAYAQhHg1FDOBoMGOZBAARAAARAAAQ8RgDC0WDUEI4GA4Z5EAABEAABEAABjxGAcDQYNYSjwYBhHgRAAARAAARAwGMEIBwNRg3haDBgmAcBEAABEAABEPAYAQhHg1FDOBoMGOZBAARAAARAAAQ8RgDC0WDUEI4GA4Z5EAABEAABEAABjxGAcDQYNYSjwYBhHgRAAARAAARAwGMEIBwNRg3haDBgmAcBEAABEAABEPAYAQhHg1FDOBoMGOZBAARAAARAAAQ8RgDC0WDUEI4GA4Z5EAABEAABEAABjxGAcDQYNYSjwYBhHgRAAARAAARAwGMEIBwNRg3haDBgmAcBEAABEAABEPAYAQhHg1FDOBoMGOZBAARAAARAAAQ8RgDC0WDUEI4GA4Z5EAABEAABEAABjxGAcDQYNYSjwYBhHgRAAARAAARAwGMEIBwNRg3haDBgmAcBEAABEAABEPAYAQhHg1FDOBoMOJSYz50rJ0WIEF729tDho/Tp0yeHPY8YMSLlypld1rt79z7duHmTUqZITokSJZR5J06epjdv3ujaSZE8OSVObKl38+YtunP3nm69cOHCUfFiRahi+bIUJ05s2rlrL61dv4F8fZ/q1veWzKRps1D3ScvU4YzrWJPuXDkn72MnSEL9Zm1Ty6b+1IIunzig3oemi3A+PjR2/XnZZd/7t2lI0xKhqftO9bVi865UttH3su67N6+oX+28aruSdb6jaq1/lPd+Hz5Q7+qWf5/UCrgAARBwmQCEo8vIXGsA4egaL0/WbpIhJUUL70OP3rynpVduGvroW1fPUfjwFuFYvHQFunDhksPn1a5ZnaZOGi/rPXj4kLLnLkSb16+iHNmzyry58xdSj159de2sWraQChbIJ8tWr11Prdt1ClTvh+6dqVePrhQmTJhAZRcvXqIyFavTu3fvApV5Q0b6XIWpw5h/1KGM71ybbpz7T97HTZycfp69XS2bNbQzHd+5Tr0PTRda4fjq+VP6uY6/qApN47DX1wY9RlKhSvVllY9+ftSzUka1eqUW3al8U//ffvdyadUyXIAACASNAIRj0Lg53QrC0WlUHq94u3kN8gkbhm6/ekN5Fm809Pknju6jhAkSyGe07dCFVq5a6/B5fX7sQd26dJT1/jtxispXrhFAOC5YtJS69rDMplgbcyQcRwwdSK1aNrduFuD+/oMHVKxkeXr+4kWAfG+4gXD0hrdoGQOEo/e8S4wkdBCAcDT4PUE4Ggw4GOY9KRzXrlxC+fLmlr0dP2EyjRozzmHP//j9N6petbKst2TZCurY5Qe3CMcC+fPS6uWL1OdfvHSZxoybQDdu3KImjepTsyYN1bIdO3dT/cYt1HtvuYBw9JY3SQTh6D3vEiMJHQQgHA1+TxCOBgMOhnlPCsdxY0YIUdZA9nbl6rXU9vsuDnu+ce1ysccxh6zXf9Awmj5jpluE45IFc+S+RjbMs4q58xejjx8/qv3p27snde1k2TPm5/eRUqTNHKBcrRiKLyAcQ/HLs+o6hKMVENyCgMEEIBwNBmxW4egj9rWlixWdssSOQVnjxKTPn4muPH9JB+4/psvi214KJ9pmEu1yxo1FaWNGo8dv39F/j57SqSfP6Nn7DzabJo0ameJGikgfxcNOi7q8sy6jsFMySXxKHCUynXj8lHbdfUgP3zjeVxchXFgqnTQhpYoelZJHi0KvPvjRvddv6bTvMzr04Al94gFZJR6rT9iwau7maqXk9SPR/0ab96n5ysWNl6/p6bv3ym2wvls0a0yjRw6VNo4eO06VqtVxaO/44b2U+IsjDNfndto9jkFZqg4vnCWuXTpDPj7h5PN5qZvtWCftnsyfBw6lP/7827pKqL53p3AMEyYsZcxbjLIXLUfxkqSkS/8doKP/rqLHd29SopTpKFLU6PT+7RvV+UYPXJRoMSlTgZKUPlchihUvMT28fY0uHt9L5w/vpvfv9B2gtHYiRo5CWQuXpSwFSlHkaDHozIF/6di/a+jd21eqc4yjPY5xEiWX7dNkz08RIkWi25fP0YWje+jKyUPi/x8COnPxPtBEKTPILpw/sov8Pjj370mqLLkpaow4sh33ke2yo1Ks+InFHycf6NyhnWLPbVhKn7sw5fmmmshPRNfP/keHNi+jR3eua4esXkM4qihwAQIeIQDhaDBmMwrHIoni0V/fFKDYESPojv7oQ19qvf2g3PtnXYGF2uIKRSmFEGvWye/TZ+qx9xgtvHTDukjeH61XgVg8cr28SzbS1urfUDwhJLWJy5ps2Ufb7zzQZge4ZqeWofmzU1Th2KKX3onZs4ZCCO699yhA8Y1m1Sii8CJ2NnXfc4zmXdT/j5WzNpR6WTJnon83W/Y13r5zl/IUKCaL2IFl2pSJSjUqVaYSPX32TN5fvXCSokSxcE6WKiN9EBv/gyscq1auSH9OnyztfxbiOmW6rLoOMFs2rKbs2bLIesr+SrWTXnDhLuEYLWYc+nH6OooeJ34gKjuXz6J85WoSi0JOthwzitdoTrU69peCydrIR78P9PfQTnRq7xbrIvU+nRCb7Uf+TeF8LM5XSgG/3zkjulLzfpbflz3hyHVyl6qiNA3w/eLJQ/q1az16cu+mmt91whJiEchpzsjudHTbKrXM3sWYdWfJJ3wEIRg/0w8VMkjh+Mvqk0KoRpF5o9tUpB+mrpZ1tHa4/tLfBtKe1XO12fIawjEQEmSAgKEEIBwNxUtkNuH4c96s1Dl7+gCjZrHGTiLaVGfjHtotZv+0KXe82LSmcokAdVmkWYuxqacv0aBDp7RN5fUxIRyTCOHI6Y5wSFGuZYbmg/uTcf5aeilmEa1TjVRJaXqp/AGyn4tZzohiBlLbj/Y7DtPyq7cC1LvYuArF+BISJ0CBjRt3CsewYqbz7o2L8kmvX7+m1BksYUFGDR9MLVs0VXugnQG8d/OS9Hhmz+YUYlaGU3CFY5eO7alfn17S1pMnvpQ5h8XzWmZoPoYM7Eft2nwnc27duk15C7knjEvcuHGoWNHCmic5d8kMNmy0LZ6cs+Jfyx3CkWcSBy/cRxEiWn7T/tb1r/SEY72uw6hI1UYBGvAsHM+6adPKaSNp+5IZ2ix5nVnMMLYZNkP+TpRCFlmKp7z22pZw7PPXZkqQPI3SXH5r23HGJ/HvOYcsun35jCyv9G0PKt/E4rh1ZOtK+mdUD5lv74NnDwfO2yOrPH/ygAY2sPwOfllzSmXIs6u2eHKfBtQrQC+fPQnwGAjHADhwAwKGE4BwNBixmYRj3vhxaF0VfwGw7sZdGiwE3vUXr+R/aFJGj0Idsqan5hlTkZ5w3Fi1JOUS4pETL+M2FrN6F5+9oJhCjPXImZHaZ02n0sy7ZBPdEnW0SSscOZ9D4Aw6dFosTb+lPKJvC8oVVoXdsCOn6beTFqGltbG7VhlKHzO6zJp06iKN+++8XKbmDO5HdSEsu4u+9D1wgjaI8WkTL7GHFf8o6VrTalIEs4gtsHSzkq1+85K63pK3WsHFC2UGkf8DmCi5hdXWjaspW1aLKGRzyv5Hjql49sRh+QTtDKVWOL58+YpOnzmr24usWTJTtGhRZZk2HA8vl/OyOacbN25S/iKl5LX1R4f2bWjgz71l9rPnzynDl9kl63qu3jesX4cmjBvtajNZ/5tyVejM2XNBamvdKEHytNTkp7FqNofceXLf8ocGC5f2v8xSZ/CWTOhPNy8G/kOI2+crW0va4HfKM2L71y+kiJGiUsOeo8TSdXnVPl9YC0eerRyy+KAq8u5ePU8zBrSTM3tJ0mSidiNnUow4Fk98v/fv6Kdq2UX8T/+9qGxz4LzdcpmXr9+8fE5Tf2wm+8pL5B1G/xNgJlRPOOYrU5Oa9P4fN5fp4MYltPL3EfTm1Qu59N683wSVw22xxWHs99VkPbb/04yN8pqXkIe3KG0xYOezRK1vqVaH/rIGz6D+ObCdvNYKR87g58wa3oUe3b5OOYtXpKZ9xos++Mi6h7euoLmjfpDXykeB8nWoaHXLH1/M4Pfe/s5cqbPmpZrf/yyrcqieid3qKc3wDQIgEEQCEI5BBOdsM7MIR5ZLe2qXpbQxosmu/y5mBQfqzApyIc8sXhNi0lezv69gwri0qlJx2ZZnGbMsWB9oRnBKibxUJ01yWYdFYYedR+S18qEVjnvEMnLtDbuVIvmtnU3cevu+FKbaCjyGe9/WlFm8pzHN3DXaYpevPekcw507uHe7DODN15my55VBthUxyXmcFDFXonhRWjx/tszbu/8A1aprEXta4SgLnfjQCsc5M6dT+XJlZKuz585TqbKVdS00qFebJo4fI8s+iMDJyVJn0q3namZwhGOZCtXo1GnLjJerz3V3fZ8IEemXVScp7JetD/PH/EgHNy0N8JieYsk1aTr/PwqsheN3g36X4owbaWfgFCP8jOHLjqgzcFvmT6W1f/mL3Yx5i1P7UX/L6jxL2V/Mxr165qs0J973OHzZUVX46QnHIYsOUPTY8WSb/3ZtoL+HWGYRFSO8/7Dn76uVWykcWdhx4sDiLOisYyeqla0ueGY0S8FvZO6C//WmAxsWy2utcPR9cIeGNLH8/4zSnGc2eYaTk7MiVWmLbxAAAfcTgHB0P9MAFs0iHDMIR5hdNS2CgYVfZiH8WHw5mwbky0ods1mWuP88e0XO6Fm3ZYeZHTUsMw+8fJx+3toAVbTCkUUji0dtiiwcNngWkNP5py+oxIqt2mI5W3i3RQ01L7eIvcizhUFNnhaOi+bNopIlisnu1mnQlE6dOkPnTx+V9w8fPqL48ePJfYy8n7Ft65Y0dJBlpmTmrH+od7+Bsl5wheOGNcuIT7HhdPDQEapWq768tv6oWKEszfpzmszWzpBa13P1nmNZtvquuTrL5kr7yVOmq/s/XWlnRN0cxSpQy4FTpOn3b1/L2UDr57BIYrGkJGvhOGzpEeEoEksWr/h9OO1Y+pdSVf3WLsPev3GJRrWqoJZp9yVeP3uMfu1SVy1TLr4bNFWd+bQWjrzXkPccKokFGws368TB0NkZhhPv21w+ZYi87vPXJrHEnVZe84yj4rzSedwCSpEpp5wd5VNceLaUEy/rKzOofWrkpLevX8p8rXDUCkpZKD54S8DIFcfl7euXz6hfrTxKEb5BAARCgACEo8HQzSIcq6RMIh1ieLh6s4GOMPwpnGmqChuc2AN5m5gR1EtXmlRVnVaSzFopPaiVelrhmHH+Ol2PZUXM8WxnJlHHOikONpzPy+Xj/jtH/95+ID2qres6ulee5YkA4NyXQf370PftWstusafyc7EErMzq8f2wwf1lWbFS5aVwbN60kbzX7nvUCsely1fSDz/2k3WsPzjkjhI3UjvjuH71UsqTO5eszkcfVq2pv3RXrsw39M8si+hxp3C07mdova/QtDNVbNFNdv+qEP+2lkDHbbLsU+WK1sJRmbHjsl5VsqgCi++VxEutXX5dJG+thV+335ZSykyWd7nmzzG0dcHvSjP1m5d6vx0wWbd98vTZqMeUlbLMniCr22UIFa3WRNY7e3AHTe/3nbzW7s9cM2M0bV1o+UPjfxsuqDOxi8b3o33rFsj6CgteTu5by+JYwwVa4Ti4cVF6+jDw8ZhKW3YW6lnJPbPfslP4AAEQcJkAhKPLyFxrYBbhyPv+eufOLDv/y7Gzcm+gKyPZIjygs4uwPZxKrdxGZ32f6zbfX7scpY5h2Vtnvc9RKxwT/r1Ct73i+WxLOGoFsNYAz3AeePCYll+5Tauu3aYPTpwF7WnhWKN6FZr+xYN61px5FDNGDKpZoyq9f/+e0ooZmptXLLM/I375HxUXDiR8hjSnIiXK0uUrV+W1VjgGJRwPzyLybCIne0vV2iVldy5Vywd7wUfzvhMo9zdV5Uj4OELeI6mXFC9iLtMKR+1RgLzM3KN8QIc1xRbPSPLMJCfrJWHt/sbZYk/gse0BZ/i5De+V7DXNkm8tPAtWrEcNfxjF1eix8Jge1qyUvLb++KZeG6re1rLf9e61CzS6TSVZJUOeovT9L5btFBy2Z+pPzSlT/hLUbsRM1cSl4/tpcq8mpBXAfO73pB8sWy+4olY4ahmpRsTFuE0XxSx1WMEAwlHLBdcgEBIEIBwNpm4W4dhfLDV3+rLU3GvfcZp9/ppLI9eKPntLxJuqlZLxHdl4xTU76NgjX/U5ig32mk462zLToRZ+uXAkHLla+eSJaFShnDK0j3V7vuc4lNXX7SKOz2gveVo4JkmciI4dsniV7ty1h1KmTCH3PCoC7tzJIxQ7dizavWcfJRLxG9OlTSNDlCiONDyW4ApHrRe3PW/pjt+3oQH9LGKBwwNlzIrlQe1viR1XMuWzOJrxXj1eYtVLY9aKmJliryInrSiKnSAJDZi7S+Y7EkPjN1+W9Xjmt0f5dPKaP3j/Y5ToseT99H6t6OzB7fJa+8EOOEOXHJJZ1sJRO2vKjjmj2+rvd2UHIMWR6Nmj+zSokeUPGhZy/9t4QW47ePn0sdxjqSyfc1/Zs1tZxq/WpjeVrt9G9sN6dlQRjtbj044DwlFLA9cgELIEIBwN5m8W4ciikcUjp19PnKeRR/33NjmDQOtRXXbVv3RSBPDWS9ql5FyLNtBdEZRbSe4Sjoo99q4uJJx2iosA4hWFmNSG42GP8ZbbDihVdb89LRy5ExySh0Pz8DF/qVKlJA7I/efM2dS3/2DpDMNOMY8ePZYBumPFikXsOZ02k+X0GG4fXOEYQBA+fUoZs+Vls4GS9izrmzdvUb7CJQPVCUqGNo6kq+3d6VXt6rOt62uXbzlo9bS+La2ryHvtsq1WOLLoYjHEyZ5g4j2BvDeQk7XA7Ddrmww4zmXsacwex9YpuQj71GOyJd9aOOYpXZ2aCY9lTnpOKYqtso06UJXvLJ7Md8Ss+Jh2lplWLh80fy/FjJdQjoHjMnJf2dmG4y0qy9sjvytPjX8crS6rDxUzm9qYkBCOCml8g0DoIADhaPB7MotwLCeE1T9lCsnROiOqrLFMK5mPaqZOJrNbCEFmHepGqa/MGPJ9IrEc/VkpEN/uFo4a0xReiLFeuTJR1xwZZLa9WU2lXUgIR3aGiRUzpgy6HTGiZSaqdv0mtGfvfrn/kfdBspDwEw5MLCp5iZqXqpUUXOHIHtXsWa2kdJlz0osXFicFJY+/d23bSBkyWGa3Dh85RlVqBHa80NZ39lq7BO5sG6WembyqOWh37U4DZdesnVaU/kaKEo1GrvxPuQ0w48iZY9efUz2ef66Tl1jYWSftcvAL30c0oH5BtUqn/82jtDks9xvnTKQNsyeoZcqFdrbQWjhqQ+q8e/2Ketfw/wNFac/fvJzNy9qctGF0+J73T/I+Sk4zB3dQHYZYHHYZv1CKyp3L/6aCFepRxChR5QkzvSpbtszIRuIDwlEhgW8QCB0EIBwNfk9mEY580suhuv5x5bIv3EAPRPxEZ1OfPJmpW46MsvqKq7ep3Q7L8pe2fWEx+7fiS8gevT2KRgpHpR/aGU9bDjhKXcWRxx2hfRSbjr53bF1PmTJaxC3XZZGYRBzd9knsydQuZSt2Nm/9l5q2aK3cBnvGkWc7b4ggzuHDh5c2eaaTZzyt022xl005lrBL9160cPEy6ypBus+ZIxuNH2vZV+eqAeZw5+49V5sZUp/D7HC4HU78DvvXzRdI+FVt1YvKNGyvPl8748iZQ0UMx2ix4srybYv+oNV/BObSasg0yiaOEuR058o5MdtXRV7zh1bQ2RKvHcfOo3Q5LeLSWjiGDRtOLjUrBjlGoxJqR8njb3v91ApTPmKRva/ZW5q9phWPcN/7tyl2wqTSpPUYOBPCUaLBBwiEGgIQjga/KrMIRx7m8orFiI8b5LT55j1q+e9BXScSnlk8+vCJ9FqWlcWHNpwP5+UTAb5vCq9mJXFg7aXiKELF/vQzl6n/wZNKsfwOrnDkZ/DS9D4Rxkc7k6k8hI8gPNuwklyydmbGURtMvNjyrTKYuWLLqO+ZM6ZS5Yr+Av7e/fuUM69lzxg/k0WdMhPJ9xMmTaURo8bypUzBnXFkI9pYjjzbmLtA0QCzjpMn/o/q1q4pn8eOO8nTBJwhkgX4UJdpGcWVU4fpt+4NVCq8xNxv9jY1BiMXWAvHel2HilNjLE4iPOPHeweVEDVcn/dB9pv1rxr8etmkwbRrpb/I51A4HBJHSWPbC+H35WQXzmMRx8vZyik01sKR6/SduYXiJ0vNl3Tj3H80vnNtea185CpRmVr0/03eskBmBxolUDpncqzIUSKepTad3r+NZvRvQ1qvbaWcZx+XTxmq3MpvCMcAOHADAqYnAOFo8Csyk3Dkc6YP1CmnjpidSIYePk0nHj8lPlUlq/CabpU5DRVPHF/35Bhe6uYlb048S9dNnOV8WAhMPn/6x1yZqYTYa8iJRVv2Revpydv38l75CK5wjCvOtT4jhCHPZs48d5V2ivOsLz57SdGEYCydNCF9myk1ZRTxKjnxOdW1rAKMK/1QvscXzU2N06eUt2xzwokLdFUEPn//8ZPMYy9tV2JdKnbtff/QvTP9+EM3tcr6DZvp29b+s1LbNq0hPvVFSVzGdZTkDuHIJ9XwiTVK4hiSc+YuID6hpqbw/Fa8ubl81Zp11Ka9vsew0v5r/c7zTTVq1vdXdfg8s3ZSnIgSKWo0ylWikjx/WS0UF9bCkZ1mRq08oQpDFnY868gxGXmJulrrn1THGusQNopdbZBx9rpePeMXOn94p5hlLEw12vVR23N9PeHI51x3HDNXMSdPndk4eyI9fXSX8gunmBK1W0onF65w4dheeTKNWvnLxfDlR9XzuDmLl6xP7N4oS7XOQZwxoWtdunbmmCxTPiAcFRL4BoHQQQDC0eD3ZCbhyENtkC4FjSuSO8B503oI9I4cZOG5QRw7GDtiBL0mal7v/f9JYadmfLlwl3C0tmt9zwHOCy/bQhyf0V5KEDmS3HdpfU630sadZ1UrNr8pWYIWzJ2p3FL3Xn1o3nxLnD7O5FiObVp9y5cy8VnSfKa0ktwhHNmW1klGsW39zcf7la9UQwYlty7DvYVA415jKH/5gLN0ChuePQwj/sd7+zhZC0fOK1W3tQx1o5wtzXnWicP1cLgfPtnFOiVOlUHGYuRg3nqJHWrC+Vi2JegJR26jPdFFzwbn8YzoL20q6gYIZ+HJApQT9/WHChnlN99rl8pthR2CcGRSSCAQeghAOBr8rswmHHm4ycR+R3Z2ySfOh7ZOPFu44NJ1GnbkTIAjB5V60cXs3rRS+amMmOGzThz+5lvhOHPowRPrInnvjHC82LiKPK+abWUVp9toE58sM6FYHvomSQL1TGttOV9vvnVPnL992ullZxbBPMvaUsxWxhMzmtpkhHCMHj0aXTrr7zDBYW443I2SChbIR6uWLZS3fn4fKakQBtqkPfnFXhxHDgCuzBxyoPAOnXtozchrdlThs6u1S+NcwPstOVxQgybfynr4sE+AxV+ZBm0pqgh9wwKQxdqDm1for0HfixiKa+TMIy/zakPpaC2myZ6f2g77UxWY2jJ2iJki4iDeu35Jmx3gOlb8RNRj0ooA51JzBQ6FM7Hb/xUOvzIQV8MRpBZ0ViNoTSbsCkWQGAw8vHGBYVpJDMOvn9g7YrjOeQTpJ+asSGIajrDD0v/8/sWAvrkG5s5RejQERkOAPiEw2nCkcTgPxoYjzMugncgq/DwMmsCrAoH1GnCa9gv4qr/vwAYLIcDGzMSgBdQnzc0Fns69Ajyeh9C5iYTMJEUetNlHDjgCKg4cNfwBHGEEbfS59+krw1sCZzeSYsdIUQu6BtDH2wO4GYaFAXSbzLnzF0aK16nqT9BmE9DRNMjX9sHOH/z5/RtDhZ8uXvtAekFnQ4LWR759/ojh5tnDGBtu8BkA0q9n7c7ACMzXt84dwdvYxGUOaARTHegGUAMYdLbjnYsnwDuhcakfFR8NgdEQGHkhMNpwpHGcD+aGI429Pmr8aAiM6BDQNHNgSGudCw4DfDezjOhAGvX8aAiMhsCQC4HRhiONo2y04UjjAB41fjQEBjAEQGscbwA3o5zbj9hsBHIO6MaW8jk74MftbJvfx7B72dQBdOmo1aMhMBoCoyFAnRAYbThSJxxxmjLacMQZNKMSoyEw5EMAdog3aO3d6yf3wdPUoKlmSUV1+G7pb58/MFQHGQ95v456YDQERkNgNARAITBYG44AAAAA//8r/PxlAABAAElEQVTt3Qec1NTax/EH2KWK0kEULKAg2ECxFxRQVLxYAQW7iIqiVClKU4qAdLAXrEhHkCqIDREUREBAxYbSUXovb57MmzEzk5nNwmY2O/nlfi47k2TOnHwz7v7n5JyTXIWLlj4sKbAUKFgoBY6CQ0AAASeBflNXSJ60dKdN5rrt/2yUlzrcK2t+XRF3HzYggAACOUlg966dvqxuLoKjL88LlUIAAZtA1YtqyXm16kv5SmdLgWMKS958BWT3zu3yz/q/ZOW3X8rUEQNse/MQAQQQyPkCBEePzyEtjh4DUzwCCCCAAAIIJE2A4OgxNcHRY2CKRwABBBBAAIGkCRAcPaYmOHoMTPEIIIAAAgggkDQBgqPH1ARHj4EpHgEEEEAAAQSSJkBw9Jia4OgxMMUjgAACCCCAQNIECI4eUxMcPQameAQQQAABBBBImgDB0WNqgqPHwBSPAAIIIIAAAkkTIDh6TE1w9BiY4hFAAAEEEEAgaQIER4+pCY4eA1M8AggggAACCCRNgODoMTXB0WNgikcAAQQQQACBpAkQHD2mJjh6DEzxCCCAAAIIIJA0AYKjx9QER4+BKR4BBBBAAAEEkiZAcPSYmuDoMTDFI4AAAggggEDSBAiOHlMTHD0GpngEEEAAAQQQSJoAwdFjaoKjx8AUjwACCCCAAAJJEyA4ekxNcPQYmOIRQAABBBBAIGkCBEePqQmOHgNTPAIIIIAAAggkTYDg6DE1wdFjYIpHAAEEEEAAgaQJEBw9piY4egxM8QgggAACCCCQNAGCo8fUBEePgSkeAQQQQAABBJImQHD0mJrg6DEwxSOAAAIIIIBA0gQIjh5TExw9BqZ4BBBAAAEEEEiaAMHRY2qCo8fAFI8AAggggAACSRMgOHpMTXD0GJjiEUAAAQQQQCBpAgRHj6kJjh4DUzwCCCCAAAIIJE2A4Ogxdf4CBSVXrlwevwvFI4AAAggggAAC3gocPnxY9uze5e2bHGHpuQoXLX34CF/rq5fly5dfcufJ46s6URkEEEAAAQQQQCCzAocOHpS9e/dk9mVJ2T9lgmNaerqkp+dNChpvggACCCCAAAIIeCWwf/8+ObB/v1fFH1W5KRMcc+XOLfnzFzgqDF6MAAIIIIAAAghkt8CePbvl8KFD2V0Nx/dPmeCoR5c3bz7Jk5bmeKCsRAABBBBAAAEE/C5w8MAB2bdvr2+rmVLBkVZH337OqBgCCCCAAAIIuBDwc2ujVj+lgqMeUJrR4phutDyyIIAAAggggAACOUlgv9HSeMBocfTzknLBUbEZKOPnjxx1QwABBBBAAIFoAT8PiLHXNSWDox4gLY/208xjBBBAAAEEEPCrQE5oabTsUjY46gFqn8f0tHQGzFhnm58IIIAAAggg4BsBHQiz/8B+346gdoJK6eBoHbAGyDzG5OB5cucxwyR3mLFk+IkAAggggAACyRLQO8LoNDsHDx2Ug8Yk336dcieRRyCCYyIAtiGAAAIIIIAAAgi4EyA4unNiLwQQQAABBBBAIPACBMfAfwQAQAABBBBAAAEE3AkQHN05sRcCCCCAAAIIIBB4AYJj4D8CACCAAAIIIIAAAu4ECI7unNgLAQQQQAABBBAIvADBMfAfAQAQQAABBBBAAAF3AgRHd07shQACCCCAAAIIBF6A4Bj4jwAACCCAAAIIIICAOwGCozsn9kIAAQQQQAABBAIvQHAM/EcAAAQQQAABBBBAwJ0AwdGdE3shgAACCCCAAAKBFyA4Bv4jAAACCCCAAAIIIOBOgODozom9EEAAAQQQQACBwAsQHAP/EQAAAQQQQAABBBBwJ0BwdOfEXggggAACCCCAQOAFCI6B/wgAgAACCCCAAAIIuBMgOLpzYi8EEEAAAQQQQCDwAgTHwH8EAEAAAQQQQAABBNwJEBzdObEXAggggAACCCAQeAGCY+A/AgAggAACCCCAAALuBAiO7pzYCwEEEEAAAQQQCLwAwTHwHwEAEEAAAQQQQAABdwIER3dO7IUAAggggAACCARegOAY+I8AAAgggAACCCCAgDsBgqM7J/ZCAAEEEEAAAQQCL0BwDPxHAAAEEEAAAQQQQMCdAMHRnRN7IYAAAggggAACgRcgOAb+IwAAAggggAACCCDgToDg6M6JvRBAAAEEEEAAgcALEBwD/xEAAAEEEEAAAQQQcCdAcHTnxF4IIIAAAggggEDgBQiOgf8IAIAAAggggAACCLgTIDi6c2IvBBBAAAEEEEAg8AIEx8B/BABAAAEEEEAAAQTcCRAc3TmxFwIIIIAAAgggEHgBgmPgPwIAIIAAAggggAAC7gQIju6c2AsBBBBAAAEEEAi8AMEx8B8BABBAAAEEEEAAAXcCBEd3TuyFAAIIIIAAAggEXoDgGPiPAAAIIIAAAggggIA7AYKjOyf2QgABBBBAAAEEAi9AcAz8RwAABBBAAAEEEEDAnQDB0Z0TeyGAAAIIIIAAAoEXIDgG/iMAAAIIIIAAAggg4E6A4OjOib0QQAABBBBAAIHACxAcA/8RAAABBBBAAAEEEHAnQHB058ReCCCAAAIIIIBA4AUIjoH/CACAAAIIIIAAAgi4EyA4unNiLwQQQAABBBBAIPACBMfAfwQAQAABBBBAAAEE3AkQHN05sRcCCCCAAAIIIBB4AYJj4D8C/gPImzevFC58rBQoWEjy5csvedLySC7jfyw5U+CwHJaDBw7K3r17ZPeunbJ9+zbZt29fzjwYao0AAggEXIDgGPAPgJ8OXwNj8RKl5Nhjj/NTtaiLBwLbtm2VzZs2ECA9sKVIBBBAwEsBgqOXupTtWuC4IkWldJnjaVl0LZbzd9SWyPXr1srWLf/m/IPhCBBAAIGACBAcA3Ki/XyYxYuXkBIlS/u5itTNQ4FNG9fL5s2bPHwHikYAAQQQyCoBgmNWSVLOEQloS2OZMmWP6LW8KHUE1q1bQ8tj6pxOjgQBBFJYgOCYwifX74emfRpPPrUil6czcaIKFSokjz7WXHLlyu34qlEffii///ab4zY/r9TL1r//+gt9Hv18kqgbAgggYAgQHPkYZJvA8WVPZCBMJvXLly8vT3XsEPdVE8ePlxnTZ8Td7ucNOmBm7Zq//FxF6oYAAggEXoDgGPiPQPYAaGvjKaeelj1vnoPfNZWDo56W3379mVbHHPz5pOoIIJD6AgTH1D/HvjxCBsQc2WlJ9eDIQJkj+1zwKgQQQCBZAoELjoULF5ZSpctIenqa7Ny5UzZs2CB79+xJljfv8/8CJ5Y7SQoVOgaPTAqkenDcuXOH/LX6j0yqsDsCCCCAQLIEUj44pqWlGYMJHpdLL7tcihUvbgwqiL0DyayZM6VXj2eTZc77GAIVKlYSPTcsmRNI9eB44MABWfXLysyhsDcCCCCAQNIEUjo4VjztNOk/aIgULFgwIehXX34hXZ7ulHAfNmatwOmVqzCa+ghIUz046ujqn1b8eAQyvAQBBBBAIBkCKRscdfDFmAkfZRgaFZngmIyPWuR7VKpcNXIFz1wJpHpwVISVK5a5smAnBBBAAIHkC6RscHzo4UekQaM7XIkSHF0xZelOBMcj4yxdpox07tol7otHvv+BfPH553G354QNBMeccJaoIwIIBFUgZYPjB6PGSMlSpeKe113GwJitW7ea/ew+/OB9mTB+XNx92ZD1AgTHrDdNlRIJjqlyJjkOBBBIRYGUDY7TZs6StPT0mHN2+PBh6d6ls9Eq81nMNlYkT4DgmDzrnPZOBMecdsaoLwIIBEkgZYPjJ3OcL9ctmP+NdGjXNkjn2JfHSnD05WnxRaUIjr44DVQCAQQQcBRIyeCYO3dumTF7juMBv/n6a/LeO287bmNl8gSyMjhWP6+6Mb1PRcmXL5/89ddfMm/u17Inam7OPHnyiO5X+Ywqsn79Olmy+AdZu3btER2wllWiZEkpUaKE+f9ixYuZt07ct2+v2f1hm9EFYvPmzbJi+QrRFu5UWtKNVvwzzzxTTixXzpjeqphhuV5W/Lhcfv/99yw7TIJjllFSEAIIIJDlAikZHHMZwXFmnOA4aEB/mTRxQpZDJrNAPb6CBQqYE5h79b46Kl3fx6vJ0TMTHLs+212OO/bYiEP97bffZPSHo6TNU+0kf/78EdsOHTok06ZMlY8nT5ZjjjlGWrVtI6WM/q7Rc3gePHhQXhr+ovy4LONRvOVPOkmurFlTqlatIoWj6hLx5rYnGho3GhPMf7/oe5n00Uei9XK7dOnWVYoUKeJ29/B+b781QhYtWhR+7uZBpUqV5OFHH3Hc9ZBxDD2ffc4MxHffe49Uq15d9ItZ9KLH+tPKlTJ08JBMHWd0Ofqc4OikwjoEEEDAHwIpExxvrH+TXF2rtqmqc3yfedbZjsKbN22SNWvWRGx7+603ZNHCheY6DUw9ej9vDJqJ7R/5yovDZfnyjOeYe6DpQ47vv2jhd/L2W29GvLdOTH5bg4YR6/TJ9u3bpXOnDuZ6/UOtI8Tr33SzFC1aNNx387ARRLYZ+61Z87d8MWeOjPpwZEw5blZoK1KjOxtL7WuuNcsvYAQxDY26aCDYt3ev/Ltli8yaOUNGjfwgSwJrZoLjoKFDYiYL14FNWu9Ec3ROmviR1KpTO+E+enyvvvyyLP5+sSOVtmQ+/kQL870cd3C5cteuXWZIXfXLL65e4XTMbl44cfx4mTF9hptdw/tccuml0viuJuHn0Q8GDRggd997r/nZiN4W/Xz7tm3S9/k+Zotr9Da3zwmObqXYDwEEEEi+QMoEx4FDhxmX0M46IsHRRuB62QiFupQqXVre/3C0YzluL3OPGjvevEtNdCF6ibRxwwYRq5/q2EnqGIHNaald8wqpahxT3/4DRANtRstfq1dLm5ZPyqZNGzPa1dyuwatL92flwgsvCgfFjF6oQevLLz6XHt27id7l40iXow2OR/q+Tq/bvWu3tGnVymmT1Lightx7//2O245k5XDjc7ps6dIMX+qn4LjNCIPHumxl1QPbYnzJ6NQ+9KUnwwN12IHg6IDCKgQQQMAnAgRH40T4NTjq3Wy6GpcJoy+xJvrs6OXXJx9rnmHL6PFly8qwl17JVCCwv69OZ/Rki8fk11Wr7KtdP/ZTcNRKP9+zl/z5558x9c/q4Lh//355qk1b2Wu04iZa/BQcE9Uz3rYhgwaZfTzjbU+0nuCYSIdtCCCAQPYKEBwNf78Gx3379rlqaYz+CDm1bNr3ObVCBXnxlddEB3kczaL9H5vc0VD+/fffTBfjt+A4ZfLHZp/I6APJ6uCo5U+fNk0+mjAx+q0inuf04KgDj57r1j3imNw+ITi6lWI/BBBAIPkCBEfD3K/B8Wg+Dv379ZUpkyfFFKF9F0cbl9KLGH0ls2LRy+KNbrs100VlVXDUPoN6afS8889PWIfvvv3W7KOnodlpWW6MDB46eHDMpnjBUUdt6yXcfzb/Ixs2rJcN6zdIAWPAUrny5YzuBWcmDOXaf7V923Yx72VfMWDQQMlrjBLP7OJFH0d7HbRFW5eMvnRol4bHHnnU/lLXjwmOrqnYEQEEEEi6QMoEx+tuuEFqXnW1CaiDSapVP88Rc4vROrZqVeQAhXffHiFLfvjB3N9PfRztB6B/iDWgbNy4UUqVLGXeFSfRJWwdPHJr/RvtRZiPE/WptHZe/uMy00NHAZ9y6qlGKKsRMzjF2ld/9undU2YYrWiZWbIiOOpAjPbtnjLf9pHmjxoDkpz7uP5gnNuXjdHTuvTu20cKFy5sPrb/s+bvv6WH0S0gerEHR/VYsXy5jB87LmaAlf11Gqq693gu4ajoJx57PGEfUS3DKZyVK19eWrVpbX+7iMdeBUf9/L04bHi4f+YN9erJ9fVuiHjv6Ccdn2pvjsaOXp/Rc4JjRkJsRwABBLJPIGWCo51QW9XiTcczYdxYo2VpkH33iMd+DI46ElvDrX06lwoVTzMHzcQbtKAjrutcXTPi2PIZo6UnT50et8+k9lt85KEH5W8jRNmXQoUKyfP9+htzIJ5hXx1+/I8xZ2GDW28OP3fzICuC49IlS8wwo+930cUXy1333O341iPefEvmf/ONue3Rxx4zWgSrxuwXb0DHySefLA881FS+njvXCMfTE4Y9e6FljT6knTo/Y18V8VhbN7WVM7NLeSM4PtUx/sATr4Kj06Ce9p06SjljPsd4y5EeI8ExnijrEUAAgewXIDhGnQO/BUf7ZfSoqpqXXkeNmxA3CGqY01BnLTrlzoMPNbOeRvzUQRt3Nrgtbn9FDeMjjft/FzcmvXZa6ta+2nWo0tdnRXD88osv5IP33jeroy2jbeLcEaivMb2SNUF14yZN5JLLLo05hEQjq2N2drliqDFSP16r8NSPp8jkSbFdCTIqOjuCY7xL65dedpnc2aRx3CqPGTVaPp09O+72eBsIjvFkWI8AAghkvwDBMeoc+Ck4/vH77/LAvc6taFa1u/foJToPn9PSzWjxst+Te8S778sJJ57otKu88dqr8v677zhus1aeX+MC41JvP+tpxM9O7dvJN/PmRaxL9CQrgqPOV6gtbLqUKl1KunTr5viWXZ5+xpiiaJO57eZbb5HaderE7Kd9Fls/2TJmffSK0KX78+REw1FDtE6TlJaWZk6KHR0SdbqjeMsXn30uIz/4IN7muOuzIzjaA7q9YhnVJd6AI3sZTo8Jjk4qrEMAAQT8IUBwjDoPfgqO48eOkWFDYgds2Ktc/+abjQmqnQNPdBjUy/fWxN72Mpwua9u32x+/9c57cuxxx9lXmY+7PN0x3E80ZqPDiqwIjnpnGA0nuhxn1Knn870d3knkqbZtZcf2Hea2ejfeKNfdcH3MfjqCvWWLJ2LW6wrta9igUUO54IILjmjAilOhOljnjdded9qUcF1GYc2LS9XxWg518vW+/V+IW985n35q3t0n7g5xNhAc48CwGgEEEPCBAMEx6iT4KTi2a91KFn73bVQNI59WqVpVBg8LDfyI3CJin7BcW8amzPgkehfzuY4OvuV/9Ry3ebXSb8FRJzPXASvRy/HHHy/tOrQ/ommRosuyP89JwXHYkKFxb8s47CXnz54eK8HRfsZ5jAACCKSGAMEx6jz6KThec3XNiAExUVU1n5YsWVI+GD3WaVNEcNTBNC/HaeFauWKFNH/4IccyvFqZE4JjsWLFpHO3rkd9u0Enw2VLl8nwoUOdNiVclx0tjvY+otGVIzhGi/AcAQQQSG0BgmPU+fVTcNRbDma0uA2ONa++Wp7u3NWxuCkfT5b+xjQ1yVxyQnB8rldPV/dnPhI3gmN8NS5Vx7dhCwIIIJDdAgTHqDOQqsHx2rrXSds49w8e+f578torL0dJePvU78FRL1E/3aWzawS91K3/37tnrxw4GLqHd/HixeO+nuAYl0YIjvFt2IIAAghktwDBMeoMpGpwPPucc6X/IOeBNgvmfyMd4kxlE8WTZU/9HhwferiZnHPuuQmPd9euXTJn9qcy65NPREdl2xedhH7I8GH2VRGPCY4RHBFPCI4RHDxBAAEEfCVAcIw6HYmC43vvvG32G4x6SczTj6ZMEx1xGr043UM60Z1csvJSdVHjFoOjx0+MrpL5fN26ddKkUQPHbV6t9Htw1Du/JGox3Lt3rzzTsZPsNCZNd1oyarEkODqphdYRHOPbsAUBBBDIbgGCY9QZSBQcPzOmF3m2W5eoV8Q+nfnpZ44TP2dncNRafjLn89jKGmt08u/r6tRy3Ba98vIrrpRixYtFrN67d59MmxKaFidiQ4Infg+OOs2MU/i3DimjOQr13tn3P/iAtXvMT4JjDEl4BcExTMEDBBBAwHcCBMeoU6L3MR4/yTkE/fzTT+Yt+aJeEvG0+nnnS58X+kess55kd3CM1xKq9bv3rsby1+rVVlUdf+rtDcdOnOQYivv27iXTp011fJ3TSr8HxwHGbSl1CqN4y5BBg4z7Vq+It9m8n3SFihXjbic4xqWhj2N8GrYggAAC2S5AcHQ4BfFaDA8fPiwNbrkp7m35tKiRY8ZKiRIlHUoVye7g2KlzF7nqaueWxVW//CzNErSQ6QE90bKV3Fj/Jsdja3JHQ1m3dq3jNqeVfg+OGY2o1sm7dS5Gp0UnI+9hBOnoO8nY9yU42jUiH9PiGOnBMwQQQMBPAgRHh7MxbeYsSYtzu7gVy5fL480fEb3bin3RO7J0NG5tFy+Y6b7ZHRxPrVBBXnn9TXu1Ix5PGDdWhhotbU7L+TVqSK8+/RzD0AHjUnddl5e6rbL9HhyfaNlSTq90ulXdmJ9//P6H9Okde6cavctM+04dpWzZsjGvsa8gONo1Ih8THCM9eIYAAgj4SYDg6HA2Xn3jLdF7Esdbtm7dKu+89aYsWrTQuE9xutQwbkV3y223i04YnWjJ7uCodftwzDjzHsvx6qmTgffv11e0BVKXQoUKyePGPZxr1a7jGBp1n8/mGH0/u2bc91P3tRa/B8d497S26q8/F8yfL2+/NSI8SbveL7tl69ail/QzWuIFxxYtn5RTE3z2dLS2htN4i7aK67RA8ZYtW7ZI12cipxnSe503vqtJvJcIE4DHpWEDAgggEDgBgqPDKb/19gbySPPHHLYc3So/BEdtdXz5tTfihkDrCLVF9ZARQhKFFN1X97ul/o2yfft266Wufvo9OGr/xFZtWmd4LIeM49+9e7fkz58/Qyt7YfGC47M9e2T4BcReTmYf60CoJx9vEfEygmMEB08QQAABBBIIEBwdcHRQxPiPJks+Iwxk5eKH4KjH0+yRR+X2ho2y5NBefnGYjP7ww0yX5ffgqAekrX+VKlXK9LG5eQHBMb4Sl6rj27AFAQQQyG4BgmOcM3DZFVdI1+7Pxdkaf/Xff/8tBYzAWczhriF+CY5a+zZPtZe6110f/0BcbBk/dowMG+I8qXhGL88JwTFfvnzyvHHZPj1Of9dEx6iXjI9kcAwtjsKo6kQfLLYhgAAC2SxAcExwAho0ukOaNns4YQCwv/yff/6RZg/cZ14K9ntw1HrrbQjbtHtKdGBPZhYdDDN40ECZMnlSZl4WsW9OCI5a4cpnVDY+A83MS9ERB5DgiV4OHth/gHmpO96lfloc4wPS4hjfhi0IIIBAdgsELji6vfuLdWLOOvtsIwC0k3Lly1urYn7qYAQt950Rb5nb3v3gQylj3Os4elm9+k+5L2oQQrwpbrTvYJ2ra0YXEfP8uCJFZOyEj2LW64rhQwfLuDFjHLdZK3Xwyz33PSDX1K0rxxxzjLXa8afeYm/e3LkyZNCATPdpjC7w9MpVJJfxPzdLvDkVx44eI7NnzTKL0OPo80I/x+LaGNMIaT9EXWrXqSM68CV62WfcCablE09Grzaf64CUBo0aymWXX57hl4jNmzfLC336ig6gGjR0iDF4Ks2xzIXfLZTXX301Zlvnbl2ldOnSMeuzaoXeGrG1MdjJvlQ/r7o80LSpfVXE4+e6dZe1caZaGvbSixH72p9MmzpVJk10/mza97M/PiyH5acVP9pX8RgBBBBAwEcCKRkcvfDVuRkvv/JKKVeunHHpMq8xXU+a/LRypSz+fpH8umqVF2+Z9DJ14Mxpp51uhuRSpUrL/gP7zcC1ds0aWbZ0iTHh9fIsq1OFipXihqose5MsLkjDaeUzzpDyJ5WXE0440bglYTHzHbYZA4PWrV1nhtj1xu0bWY5cQL+Erfpl5ZEXwCsRQAABBDwVIDh6ykvh8QROLHeSMdVP4hbOeK9lfeoK7Ny5w7iD0R+pe4AcGQIIIJDDBQiOOfwE5tTqFy9eQkqU9O6SbE51CXq9N21cL5s3bwo6A8ePAAII+FaA4OjbU5PaFdMpj0459bTUPkiOLtMCv/36s+zbty/Tr+MFCCCAAALJESA4JseZd3EQOL7sicZdVo5z2MKqIAps27ZV1q75K4iHzjEjgAACOUaA4JhjTlXqVVRbHU8+taLr0dWpJ8ARWQI6mvr3X3+htdEC4ScCCCDgUwGCo09PTFCqdVyRolKmTNmgHC7HGUdg3bo1snXLv3G2shoBBBBAwC8CBEe/nIkA14OBMgE++cahMyAm2Oefo0cAgZwlQHDMWecrZWurLY+lyxzPZeuUPcOxB6aXp9evW0tLYywNaxBAAAHfChAcfXtqglcx7fNYvEQpBswE4NTrQJjNmzbQpzEA55pDRACB1BIgOKbW+UyJo9EAWbjwsVKgYCHJly+/5EnLQ0tkDj6z2rJ48MBB2bt3j+zetdO4XeU2AmMOPp9UHQEEgi1AcAz2+efoEUAAAQQQQAAB1wIER9dU7IgAAggggAACCARbgOAY7PPP0SOAAAIIIIAAAq4FCI6uqdgRAQQQQAABBBAItgDBMdjnn6NHAAEEEEAAAQRcCxAcXVOxIwIIIIAAAgggEGwBgmOwzz9HjwACCCCAAAIIuBYgOLqmYkcEEEAAAQQQQCDYAgTHYJ9/jh4BBBBAAAEEEHAtQHB0TcWOCCCAAAIIIIBAsAUIjsE+/xw9AggggAACCCDgWoDg6JqKHRFAAAEEEEAAgWALEByDff45egQQQAABBBBAwLUAwdE1FTsigAACCCCAAALBFiA4Bvv8c/QIIIAAAggggIBrAYKjayp2RAABBBBAAAEEgi1AcAz2+efoEUAAAQQQQAAB1wIER9dU7IgAAggggAACCARbgOAY7PPP0SOAAAIIIIAAAq4FUiY4lihZyvVBsyMCCCCAAAIIIOBngU0bN/iyegRHX54WKoUAAggggAACQRYgOAb57HPsCCCAAAIIIIBACgikTItjCpwLDgEBBBBAAAEEEPC1AMHR16eHyiGAAAIIIIAAAv4RIDj651xQEwQQQAABBBBAwNcCBEdfnx4qhwACCCCAAAII+EeA4Oifc0FNEEAAAQQQQAABXwsQHH19eqgcAggggAACCCDgHwGCo3/OBTVBAAEEEEAAAQR8LUBw9PXpoXIIIIAAAggggIB/BAiO/jkX1AQBBBBAAAEEEPC1AMHR16eHyiGAAAIIIIAAAv4RIDj651xQEwQQQAABBBBAwNcCBEdfnx4qhwACCCCAAAII+EeA4Oifc0FNEEAAAQQQQAABXwsQHH19eqgcAggggAACCCDgHwGCo3/OBTVBAAEEEEAAAQR8LUBw9PXpoXIIIIAAAggggIB/BAiO/jkX1AQBBBBAAAEEEPC1AMHR16eHyiGAAAIIIIAAAv4RIDj651xQEwQQQAABBBBAwNcCBEdfnx4qhwACCCCAAAII+EeA4Oifc0FNEEAAAQQQQAABXwsQHH19eqgcAggggAACCCDgHwGCo3/OBTVBAAEEEEAAAQR8LUBw9PXpoXIIIIAAAggggIB/BAiO/jkX1AQBBBBAAAEEEPC1AMHR16eHyiGAAAIIIIAAAv4RIDj651xQEwQQQAABBBBAwNcCBEdfnx4qhwACCCCAAAII+EeA4Oifc0FNEEAAAQQQQAABXwsQHH19eqgcAggggAACCCDgHwGCo3/OBTVBAAEEEEAAAQR8LRCI4Jgrd27JkyeP5MmdR/Rxrly5fH1SqBwCCCCAAAIIpJ7A4cOH5fChQ3Lw0EE5ePCg+TinHWVKB0cNielp6ZInLS2nnRfqiwACCCCAAAIpLnDwwAHZf2B/jgqQKRsc04ywmJ43X4p/5Dg8BBBAAAEEEMjpAvv37ZUDRojMCUtKBse09HRJT8+bE/ypIwIIIIAAAgggIPv375MD+/f7XiLlgiMtjb7/zFFBBBBAAAEEEHAQyAktjykVHLVPY/78BRxOBasQQAABBBBAAAH/C+zZs9vXfR5TKjjmNfo0MhDG//9RUEMEEEAAAQQQcBbQATP7jD6Pfl1SJjjS2ujXjxj1QgABBBBAAIHMCPi51TFlgiMDYjLzkWRfBBBAAAEEEPCrgJ8HyqRMcMyXL7/kNib5ZkEAAQQQQAABBHKywCFjcvC9e/f48hBSJjjmL1CQO8L48iNGpRBAAAEEEEAgMwJ6h5k9u3dl5iVJ2zdlgmOBgoWShsYbIYAAAggggAACXgrs3rXTy+KPuGyC4xHT8UIEEEAAAQQQQMAbAYKjN67hUmlxDFPwAAEEEEAAAQRyuADB0eMTSHD0GJjiEUAAAQQQQCBpAgRHj6kJjh4DUzwCCCCAAAIIJE2A4OgxNcHRY2CKRwABBBBAAIGkCRAcPaYmOHoMTPEIIIAAAgggkDQBgqPH1ARHj4EpHgEEEEAAAQSSJkBw9Jia4OgxMMUjgAACCCCAQNIECI4eUxMcPQameAQQQAABBBBImgDB0WNqgqPHwBSPAAIIIIAAAkkTIDh6TE1w9BiY4hFAAAEEEEAgaQIER4+pCY4eA1M8AggggAACCCRNgODoMTXB0WNgikcAAQQQQACBpAkQHD2mJjh6DEzxCCCAAAIIIJA0AYKjx9QER4+BKR4BBBBAAAEEkiZAcPSYmuDoMTDFI4AAAggggEDSBAiOHlMTHD0GpngEEEAAAQQQSJoAwdFjaoKjx8AUjwACCCCAAAJJEyA4ekxNcPQYmOIRQAABBBBAIGkCBEePqQmOHgNTPAIIIIAAAggkTYDg6DE1wdFjYIpHAAEEEEAAgaQJEBw9piY4egxM8QgggAACCCCQNAGCo8fUBEePgSkeAQQQQAABBJImQHD0mJrg6DEwxSOAAAIIIIBA0gQIjh5TExw9BqZ4BBBAAAEEEEiaAMHRY2qCo8fAFI8AAggggAACSRMgOHpMTXD0GJjiU0rghBPKyg3XXWse05hxE+Sff/5NqePjYBBAIBgCp59eUWpecbkcPnRIXn1jREodNMHR49NJcPQYmOJTSuCzWVOlcqXT5fDhw1LjkpqyevVfKXV80QdT6Ngikictb/RqObBvr+zasTVmffSKPGlpUujYYtGrzec7t/0jBw8ccNzGSgQQ8Fag+SNNpXOn9uabDBr6ovTs3c/bN0xi6QRHj7H9HBzz5Mkj/Xo/J9dff60cW7iw5M6dO6zR8Zlu8vqbb4efp8IDPb4a51d3PJRdu3bJj8tXysGDBx23e73y95+XSr58+cwWtqrnXuD123lS/gU1zpNB/fvICWWPN4/FepMtW7ZIpTPPs57G/Vn32toy4vWXze2fff6lNLjznvj73v2E1L7jEXP73t07pdMt/5V/5a33y40PtjO3Hdi/X9r/76yYcsqddqak58tvBqs/Vnwfs91acUKFKpKvQEHz6d+rfpS9u3dZm7LkZ/cP50nhYiVjytLg3OqaijHro1dUv+pGuavjwOjV5vNFn06Wt3s+4biNld4LlK98jqSlpZtvpJ+xeCH+uBKlpXiZcuZ+61evkp1bs6eV/fH+I+WkM8416/H7jwtlaOs7w0jNer4pp1W72Hy+5reV0v/R+uFtR/ugdKlScvLJ5UNlr13n+sviaRUrSLFiRc0vmd9+t0jyGL/fq1cP1f9f43fOTz/94lg1+98B/X2vr423lD2+jNxwfV255OIL5fff/5Cp02fK/AXfxds9Zv2qFT/IMccUkv3GF7gzzjpPtm/fEbNPTlxBcPT4rPk5OM79/BOpcOopjgJPd+7uafP6vXc3lnPODv1B15C6e/dux3pk5coixx0nK5ctTFik1mPBtwvl4ceelM2b/0m4b1ZuXPvnz2Zw328EnRNPqZyVRScs67JLL5Zbbw79EXj73Q9k0feLE+4fb+NVV14hI99703Hz1m3b5PQq1Ry32Vcu/+Hb8B+CajUulbXr1ts3Rzxu2KqXXHRdA3Od/kFuc12l8Pbr7mkp1zR5LPy8ZZ0K4cfWg74f/yhpefOZT4e1bSy/fD/P2hTxs/dHS8LB8e0eLWTRnI8jth/tk3jBUct1qnf0+yUKjt9/PkVGPPt49EtS8nmpchWk8vmXy/69e2TZvNmy7Z8N2X6c/Wf8LLlyhb6M92l6naz9/SfHOt3yWBe5vP7d5rY1vy6Xvs3qOe7n9cqn354jxY///wD75y/S+4FQlxF931bDJ4p+2dJFbbs0DIVIc8VR/vN0x3by+KPNzFKWLvtRal17o6sSly76RkqWLGHu+9CjLeSHH5bKvC9nm88PGZeHjy9/mmM5Gjb1d421lD4x9vdD8eLF5NOZH4uG2uhFy378ybaiXWkyWh568D55tuvT5m5Tps2Q+x4MfdnN6HV+305w9PgM+TU41jO+Rb3+yjDz6LV148uvvpaVP/8i+/ftM9cNGf6yp8Hp+2/nyvFlSpvvde75lyQMCVl1itwER+u99JdD04cfl8lTplmrPP2ZXcHx5WGD5Kb6oT9Uvfr0l4GDQ5+JzB7s4u/mSpnSofO5ceMmmT3nc6P1NBS8l69YKR+OHpewSPvnUVsAbqh/W8L9szI4vtzhPlnx7eeO7+d1cDyhYhXjUnPR8Hs3ffbVcKB1ExzzFyos5SudHX79eVf/Ty64NmQXhOB4zHHF5NG+78rxp1QKG+gDDY9vdnskbitfxM4ePXEbHLVFu9fExeGQ+fyD18q6P5xbyzyqqllsdgXH/9W7Xl59aYhZhw0bN8pZ1S5ydZirjZCdN2+om8cFRrcWbUm0gqP+TStTzrnFPqPgWL5cOTM0akthoqVztx7y8qtvJNrF3PancaVCrybp35STjfC9d+/eDF/j9x0Ijh6fIb8Gx8ED+krD228xj/6tt9+Tpzp29lgisng/BEerw3KuXLmk/IknyDnnnBXxDXOfEaKrnnOBbNu+PbLyHjzr37enlCheXDYbg0Fatgn1i/HgbWKKzKrguG71L8YfvlzmJZlTKlY1f8a8WYIVcz6ZImdUDv3xv/fBh2XqtJkJ9hZJleAYfZD2oOomOEa/vlbDZlLv/y/TByE4dhoxW0qUPSmawXy+bN4see2Zhxy3JWOl2+Codbn3maFyzhXXmdX6ZfE3MqzNf5eJk1FXfY/sCo7aqvfDwq/Nw9RQVd7oHuJmWf/XKnM3KySecvJJWRIcv/psplSscKpZtoa9YS+9KuPGfyTVq50r7do8EfE3oso5NTJsYHnrtZfkurp1zPL0i7l+Qc/pC8HR4zPo1+A4ecLocH8/N3+os5rJD8HR6RLFky2aS4d2rcKH+/7I0UkNcuE3TtKDrAiOerlILxvpopeXtQU5M8uR/OEgODoLByk4nnlJbXmgW6hPrHY1ePf5VlLAaIG9v+tLUvLEUBeczg0ulO3/bnLG8nhtZoJj4aIlpJvR31W/fGkQ6trokqRfbs+u4Kinwbrioo+dfi/revuirYILvp5jrtJ+gxXPOEeyIjjafxdp4U+0aicjR40130f/0atWixZ8KQULhvo9j3jnfWnX4ZnwdqcHZ51ZRT6ZNsnc9O+/W6Sy0dcxpy8ER4/PoF+Co3byPfPMquGj7dm9s5Qrd6L5vM8LA2XJ0h/D2/TBdwsXRXyTqlPrKsllXApYvHiJ1LzyMqn/v3ry55+r5Y0R75idkLWv5H33NJHTT6soc+fNl+HGtzRtsbOWc43+jKVK/9df5MUhA8xOw7pd/+P8x/gPyr6sWbNWtL9LVi7Rl6rj/YKyf+NUl9p1Y/vc2D1XrPhJ/ly9WgoXPkYebdZUzqx6huTPn19W/fqbaL/BH5eviDkMnapBByRFL3qZ9w/DNdFyZtUqUtYYgKIDP/SSsF6i0b6KN9e/UbReCxctllFjxslvRmfu6EV/4VaufHp4dbvWT4r+YtNl3ISPZPzEyeFt+mDPnj3y+RdfRazTJ/p+1i/PE40pdHo911VXi9a/VbuO5mPrn61bt8o38//rU2Stt362adVC2rZ6wnz61dx5ckuDxtamuD/9Fhy1v+Rp514spxsDCMoaLSb/rv/b7De51Gj12rPTfYt1drY4FjMGaFS5oKacelYNyWt8fv9etUJ+WviV/LpkgRFmDsU9F9m14bbHu8ml/2ti1q39jWfLvr2hftJlTqooT7023azWh/07yLypozJVxfNr3ywnG4NESpygLZm5ZMvGtaL9E7+ZNjpT5zIzwVEr2Lzve1Lx3NBl2iVfzZA3umauP5wO5CpS8nhjgN9+WbHgc/PStw5o0X6wRUqWkT+WL5YFM8fJpjWxvxf0/bMzOK5c+p0UKVJEqyHVL7xc/v57jfk43j/agqctebr8/MsquazmNVkSHPs930PuatzILFenAjvj7PPNx/Z/uj7TQR5p9qC5ygqt9u1Oj3/7aUn49+XZ1S+W9Rs2OO2WY9YRHD0+VX4Jjh9PHCPnn5fxAAWLwz44RufVe+PV4eamHTt2hgOfrtCmfB1I8tLQgRGjsjW0XHTZ1VZxsmDuHClfPtTxOrwywQPtF1ez9vUJ9sj8JrfBUS8bN76jofkG8UYEd+rQVlo0f9jcR7+RzvxkttlPR0Nc9PLiy69J12d7RazWSzNOHa81bJc79YyIfaOfWL+EtGXiilp1ZZbxbdbq62Ptq9vad+oi2g3Bvgx84Xm5o2GoD5x9fbzHToN1or+Vx3uttT6jwTFTJ401LwPp/r379pcBgzLuZ+mn4KhBo1Hr3sa0OmnWIYd/6sCd9/u2lYWzPwqvS/Qgu4Lj3Z0GS7WaNzhWbfs/G2XgE7fLP+sSf6FxfLGHK29r0V0uvbGxGRxbX1spHG6PLVbKaL0LXfocP/xZ+Xz8W65qocffsGUvyVcwft82PY/v9GrpqrzMBkdtJe345idm2RrUO9Q/J1Oj+J+ftMQI/AUNh8PSp2ldaf3iJElLD/UBtCqs28YO6SJfTYr8vaDbszM42ruq3HXfQzJj5iyzyu+OeM34Il7FfDx9xifhLlX2K0O6r74mK1oc7X214w1m0dHcX86ZYdZJ/9H+lRl92dcWR+sLevcevWXYi6+GX58THxAcPT5rfgmO9j/Obg7ZHhztnZcTvVZ/KemlFmu5o8l9ZouYPv/y0+lymtEa6XbJzuBo7/+pQblC5f8GH1j1twfHmbM+NVphL5d0h+Cg+8/69DO58677rZeaP+MFR6egFvFC44lO3VOgQAFztY4Ctx5H76fnQ6f2sY8Of85oaW56f/xpbqLLcKqPtmouWhDbChn9Wut5RsHRCsK6/+VXXxt3Gg2rPP3pl+B4d8dBUu2q0OAiq376R98aTWutmzZioEx/d4j1NO7P7AiOHd6YKaXKhfp0WRWL/m/5kDFtSf/mNxmtkFl7FcB6vyP5qYG98VP9zJd+MfFtGT/sWUk3Wn6bPvdauOWu5321ZeNfv0UUrwGxWs16ES16OnXOk4PHRvz+0mPWJbcxbZm1/LnyBxnw2M3W04Q/MxsctbA2RtjTAVO6fP3xSBk1sJP52M0/z09eKnnzhX4vaOur9Tj6tXpuO99+gezY+k/EpuwMjq+9PFRuvOE6sz49evWVwcNCrYl/Gy29aWkhf3sL4NBB/eT2W0PnQb9o6hfOrAiO9t9F2tdcuyo5LX/9vjL8+77x3Q/IJ7PnOO0WXmf/vTvvmwVS/9ZQq2Z4hxz2gODo8QnzS3DUUJOWnh4+Wg2S1mAE/eB/9fU34W36QDspa2uiLvbgqEHlrOoXSd1r6siQgX3Dv2i/X/yDXHfjrTKgX29p1OBW83UTPvpYmhnTJOiic0baW8XmfTkrPApXv7FtMC5x2he9DKtzX2Xl4rbF0d7/Ml6AtQdHq447d+6SIcNfki++nGvYHZaral4uzR9+SObNXxATHLVfoF7Otpb5X33qejoee3DU1+vldHXWVl4dnTx86IDwLzWdMqJ5i9bW25g/7UFz8IA+5vnVDf36D5ahL74Ssa9+BpxGAdrLqFjhlHAfHu2+cEWt0B8AqyCdK83ebcFab/2M7uRurU/084JrbjUvU+o+u3dsk5fa/xeGT6l6ntz0yNPmy7XFb/CTt8cUZZ+OZ7PRkrZ10/qYfXTFKVWrh0Ng9HQ8emlaR/Ray8/ffy3v9mpl9k3Tib3vbNdPqlx4lblZw2Tn2y+M+WNtvdb6mezgeH6tm6Rx+xest5f508fIxJd6ym7j8vpZl9aRuzsNMlpSQ783/v7lR+n3SGy3jfCLk/xAw/mzo+dLoeOKmu+s5zp3ntzh86Uht9/DofpqK+T197UyW1W1VU4X+/l8pM87RjeDS8z1emn65Q73hkc25y94jNSoc4vUavSwGUJ1+iY3y5EEx5ONaaueGDTGLP7ggf3S7oaqxu+SUIDN6D3twVH31fM1wphCatPff8g5l9eVJh0GhFvFv501Qd7rHfl7QacFOqlyaB7EX5fMl4kv/3eVpOZtD4ZbpNf8ukK0C0BWLvYWRJ2BoUXLtqLdeb6YHepyoO+lgfeEkyuZc+1+NO5DufCC0GVkq4XSHhx1/3jdY9LT08JXOHQ/e5cle1Bt2PhemfPZF7pLzGLNz6gb3Mx5fPNNN5pX5XR/vQyvl+Nz8kJw9Pjs+SU4Rh+mven81oZNzOl4ovexntuDo4ai2xrdZW6yt5o98lhLs4+chkOdJkGXxca8Wtdc7zxRrD2cZdd0PPZfGFpfvcys32SteQ11nY681tbX6CU6OOodTi6/um7MfJRaZskSJTLs02J1Dndq4Yt+b3twdPol1PKJ5tK+bWiAT3SXgeiysmJwjP3SjV6y0S8Cbhd7mNcvCicafxiSsdiDo9v3swcNfU33Ud+IDmrQ5btZE+Xd3v8NqjJXGv883HuEVDrvMvPpj998Kq8+HeobZW2P/pns4Gg/hsVfTJO3ujePqJL2m2vz0qTwOg2OGkj8smh/xsdeGBkOj1a9tJVx0BO3yenVL5U6dzaPmK5HA8iaVcvN8LPaaL3X5bkx34bL0Nf9/mP8SaGt98jopz04ZmaKHftI8RnvDZOpb7kbhWsPjv9uWCPdG0eGk2saN5fr7g19RrWfY497rs7oEJK2XftMj/0w9CXMapGzh0mrIlaYs3d90sEmOugkOjhar8nop/V3QH9X6+9ha7mqzg2O/dN1+7Lv50uJEsXNXbU/f7fnelsvc/ypIVfDri5bjD7flYwvpDl5ITh6fPZSLTjqYI+27UOtObOmTwr3P7FfYrS+tengkEuuqO0o7IfgqP0SzcW4vK5zSuoAH3tLmtW66jTbf3Rw1AE00QOMHA88zsojDY5Ol1N00M3Py7833ymjX1LZHRztIw61xfbUSmfFEcra1UcbHMueWlnavvyxWakD+/eZLUNOA0gKHnOc9Bi/0Nxvx5bN8oxxiTDRkszgqP3f+k4JfcnTOmnQ0MARvdgvYX4+foSMHx77RSr6Ncl8ri2POn9lhXMulIPGudAwqK3Oeknaal3U+uzZtcMcHDL97UGyc1vkYDx7gJ418iWZ/Hrfoz6EflNXhFtrdcJst5OS20eL652KnO585FQ5e3Ac+UJ7czCPfT+d87PXhNDvBb2dZaeb/RNeChUqKL+uXGJW1/ryqUFSA6X+XihYsIB5des1425mnYwbRvxiDPTRwYgHDhw0WiFDg/2ONjjqYNFvv/4sTJZoqh3736/RY8fLY0+0Cb/O6YG9bDf92J3K8NM6gqPHZyPVgqP925V9wI19pJg1MWuiqVns/+FlV4tjolOvl2fvNC7h68ToTos9OCY6TqfXOq070uCod1hZs3ZdTJHheRWNS/6J7kTjp+Cot3085fTkB8fXuzSTn75z7rPZ3bgUat1y0N7ieEm9O+X2J54Nu+soanOx9fG1+vvqSFddtKUro9sIJjM46p1A9I4guiQKEtYgFN1v+fzP5JVO9+tD3y0aFJ1aF1cbI1qnGWFx+fw5cevcYuBos1uC7qBfAL7/bKrM/fj9uHcUiluQbUPviT+EB9q0uuY0s1zb5oQP7UF23NBuon04M1rswbHbnZcao8Fjfy/0nxGab1Uvg7e5rnJGRSZ1+1+/rZB0ozuVNVLZatVbuOh7cxYJvcGANcuF9fvS3u/RHhz1v7V4v0t0AvCF3/x3CdpqcYzuu31mtQvNWSKcEPT1JxizSeji1B0o+jX26YMIjtE6Wfc8V+GipQ9nXXHZV1KqBce+/QeZfeFUdNyo9+TSSy4ycXVGfG2h08W6lLpp02ZzcIa5MuofPwZH/Q9aW+gmTZ4qXbr1SNjH0h4c3dzpJOrwY55avwgze6na+qUXXaDb8rI7ONpbR7PrUvWR3DnGPjgn2j7R86fqnRmeNsZpv2QGxwvr3m6OBtd6aD/P5+6q6VQluer2pvK/h9qb23RaGr19nl8Wp76LWjft97pg5nhZOnem0bextTmv4yEjLP1tXKLWUe7Rczseb7RatX1litmqZT82DZE7/t0syxd8JtPfGSL/rP/LvjnhYyv8ufnCEF3QxTc0kgZP9jBXu2mp1h3twTHe5PHW5XM/Bscli+ZJqZIlzVbEckaL/po/fjLPh06aXen0081JtPXLZRXjpgz6N0YXK0jq4+jgeCR3jrH6W2t5euvDeFPCWbdH1f30LmvP9eyjD+MuF11YQyaOHWluz+gqUNxCfLSBFkePT0aqBUed8/GFAUNMNetSgj7R2f6tQRTWyDS/B0f7ZdHdu/eEBwO5+UjYg+MEY+7DZs1D8xC6ea3TPm6Dnr7WCub6ByneL0e35WV3cNTjsX5ZJzoe3S8rF/ul6iMJjs16vWncG/kKs0raWrfGmPPQzaKDLvTSdrwlmcHx2iaPS917njSrsva3ldLnoesdq2UfvayDiLrecYnjfsleqVPxaGuotejn58+Vi2XaiEHmLSR1+63GXI9Wy6+1nw6i0Tuz/LbsO2uV+VPnr7zn6cGiYdRp0RD5Ts8nXd+vvP3r043R6hWM+2fvlqduzHxLur3FUvueah/URIsVHBMFVT8HR/vMH03ueVB0Kh5dNMCdffaZMqBvaLCOztbxwbtvmtt07lntX69LVgRHq5uVlmefFUSf2xe9rK6X13XRu65FT3tm31cf33LT/+RFY9CiLn/99becd1Hod4e5Igf+Q3D0+KQRHJ37dPmhxTFea52bj4Q9OOo8jjqJ+dEsboOevkeqBUfri4YeW6Jv+bo9q5ajDY46AvXy+neb1flt2ULHkdtHUtdkBsfqRr/Au4yRtro4Daaw6l/7jkflhvtbm0/XGAPf+jarZ23K1p/Fjy9nzj2owX2+MTm3tghqP0Zd9B7WeicWnUpHA58OdtHR0dY9rbVFstMt5zlePtZbGJ5Xq745sKa80XVCJ3e3Fm2pa2/Mr3hg315rlWc/7cE+UYuwVYGcHhx1Ro47G4VmQPj0s8/lqiuvCPdhtF+Z0OnP9IYUuuigFO0+pUtWBEd7INQ7wuidYZwWe8Bs1Pg+0fomWp7v2V3uvTs0Gn+uMYPJzbffmWh3328jOHp8igiO3gTHke+9KadVqBBx9lo/1Snu9Am6o30Erz4nOIr4ocXR3ldWpwTS7hBeL0cbHGtcc4vc2TY0gGLj379Lz3trZUmV7a1Mme0XpxWwX1Ze+vUn8nrnZnHrZb/Dyt5dO41AdLbjvjq5uV7W1mXpXKNMo09ovOW4EqWl0LGh6XF0nz07d2Tq8m68cuOt1/C4ee3qmM1X3nJfeEomnT5Hb0moiz0ED2nVyLwrTsyLo1bYb+Oom97s9qj88OV/08RE7Z5lT3PnzmNefrYm8R7SsqH8uvTbuOX7LTjqgMOiRf/7LGzfsUN09ol4y/333hW+A5VevcqXL585xZh1IwlrChz73LU33txA5i8ItRxnRXBcOP9LOaFsqE+y3pVLWx2jl3OM1s8ZUyaGV8frZx7ewXjw6cyPpcoZoT6lejMIvSlETl4Ijh6fPYKjc3Cc+/kn5ihm5bf/x+/2dNj7mFivadm2g7z/wSjracxPgmMMifTp9azcc1fo269ebtHLLpldjmY6Hn0v+7QbOvfa/24J3bUns/XIzP5HGxyt1i59T700qIMR4s0FmZl6dX7vCylaqqz5EqfJqzMqS+eN1Amwdclo3kUNJi9M/ylcZLypdnSuxGOKhKYemT3qVZn0au/wa6If2IOvbtM+gc82uTJ6N8+fN2zVUy66rqFE9+XTlY7CSwAAD1RJREFUu/v0m7rSfH+d5kanu3GzPDl4jJx0RjVzV7eTubspN6N97C3bGbX2+i04WkHPOkYNjedfHP+zYJ9hwXqNfcSy/QumtV3vsmXNEZsVwbF7l07SrOn9ZvHxblxgbz1M1B3LqqP+tK4S6eNEg250e05YCI4enyWCo3NwtPePPJLAQnAsYAaWo+3jqHeR0bsa6JJo+qRE/5kcbXAsXryYOS+a9kVzMzgoUV3cbjva4Kjvo7eH09vE6fLHiu9lUIvbHS996nQxl990t9mnTkf4JlpaDBxlTiWj+yya87E5SXWi/aO36bySOihDF71E+8xtNWKmnrG/xn4Mf65YLAMev8W+Wc694nq555lQn2YNyDqAJtEAEb8ER/tlXnsA1/s239VxoHmM9n6DOiJ7uXF/53j3FddbGFp9H0cN6CRfTwkNdIjAsj1Rt/oPdwyv+faTCfLxG/3Cz90+0Lu/9Jq42Lzkrq9JNB9kTg+O0fMo6vE+8FBzmTwl1LdT72ev97W3lujRyVkRHLVxYYVx32yrX6y9T7++r06r87XR6KGjv3VxMzBGb/WroVcXt0HT3NnH/xAcPT45BEfn4Ni65ePSrnWoY77+QfrUmKFfW5u2bdtmnhG9/BBvRJvukJODo957tYJxtxX78srwweZTnZfs0RYt7Ztk/foNopPiWov17VXdjjY4Rt+d4cflK0T7EK1bF7qTit4JJqPbaR1tcNTjsk9I/5BxF5yJxl2HvFyyIjjqpd52r04L/5HZufVfowVrqKz6Yb7R0rVPTq5S3RxAo/Py6d1XMmqt0+OtelEtefDZV8KHrmHuD2PAx+FDh8x1n419M2Fw053srZb79uySZV/Plu1bNpmv37D614j7FFc89yJp3vc9c5v+o3MgTn97sGzZtFZqGLf0u8K45Gv9Ef1p0Vx5sV1o8v/wC6Ie+CU42i/Da7/HuZM/kIKFjzPuAHOzeS70doIdbz43fC9o/TzkMea11ME1330yUX5d9q0xMnu7XGB0SdCwaX1B0P/m2tWrmmEfR73LTL0H2oZ1Vnz7uXE3mtjLnuEdEjyw30f8l8XfmAN7nHbP6cFRj8n63WYdn71FMfp3VfQ0aFkRHPV97b+L9Lnes3rK1BnmvaYb39FQjjmmkK42v7ifVuVcc/ogc0Wcf95/5w2pdVWopTVZXXHiVCXLVhMcs4zSuSCCo3Nw1G+XPy1bZE7i6iQX71Z/1r45OTg61d06Lqef6zdsEJ0n01qsX65ZERy1TPu0StZ7WD/dtABmRXC8pk4teefNUGBa9P1iqVsvsuXLqk9W/cyK4Kh10XkDr7u3ZThcJaqfm+Cor9e5FXWORafF3krmtF3XaRh8tM+7jnXautkYFd3okoiX6qVt69aIERtsT7QP5PNN6zpOEG7bTeyuuj4771ByR5vn5YJrb7NXL/x4wks95LOxb4SfR9c7vCHqwcz3h8mUNzO+k0tWBkcd6KPziWqA1//m9fw5TSbut+D4p3HLR+2naC0Z3cVK99MJuLVVTxe9G4zeFca+2O8RHd2tJauCY9GiReTz2dPMqYHs721/rLdifbDZY/Lx1Iz7ulrzU+prdNo6a/YRe3k57THB0eMz5tfgaJ/6IDO3HLQ33dsvN2d2Oh5l17u0tGv9hNzV+A7zW5zVsqHbMgqOSxd9I3q/Z/ti3fbQvs7+2D4yL1Hosr8m3mO9ZKKXTnTJ7KjqFUu+MzqNF4lXdMz6IwmO1i/Y6Ms5MYX//4omdzaSVsatCssaHcPt58FNcLTfFcG660O890m03jqnem5qXFIzYUf6ROW42Wb9kdV9E03H03P8IilwzLFmka8985AsmzcrpnidcuVhY3qeoqVPiNmmK3QErg5qmPDic6LzILpZdJqZalfVkwKFjo04H26Co5av8xLe12W4FCtzYvjuJbreKTjqeh1Uoy1kOgo5etHL8MPbNEk4/6S+RvtmamunfXE7ebX9NVn5WO+xXKfxo6aj0UZkzsk4evAzsuSrmRFvc3/XF81bQ9rvNGPfQUdha2D88qN37KvjPtb3rd+sQ3h7RoOKwjvGeWC/deWSr2bIG10fidnT+kzrfz/xJprX/p3az1OnhGp7/RkxZWTVCp0c2z7Jtpbr5p7OY0a+I5dfFvpiY7+9rVUve994HfGsI5+txT7JdqLf727+DmjgnTZ5nJxRuVLEf3/6Xjt27JS77m0qc+eFuoRY7+/0s0Xzh0Vn4NDlo8lTpOnDjzvtluPWERw9PmV+DY4eHzbFI5BpgatrXhGen+2rufPklgah6SsyXVA2vUBHv55s3IO2wlkXiD5e/+cqY4DKMtdhMZuqHfG2GjgrGfNT6pcHndvxl8XzEs47aX+x/V7Iun7X9i3mlDf2ffz+uFiZckYXg2pS8oSTRS9nb/93oznIyLqndXbVP3Iw1iHpeFO18NRD2VWnRO/b0vgS2r5tq/AuW7ZskUpnRrYehjf6+IFeGbvk4gul2jlny8ZNm2Ta9E/Mm0S4qbK+dpXR1aRgwYLmzSQqVa1m3j7RzWv9vg/B0eMzRHD0GJjiU0pg9ozJUrVKqCWkxsU15c/VsVOtpNQBp9DBtBwyTspXPid8RE73Sw5v5EGmBVoOHS/lK4WmTPr645EyamCnTJeRrBdoa121c//7LLRs017eHzk6WW/vi/exzxbRf+BQeb5faM5UX1TuKCtBcDxKwIxeTnDMSIjtCPwnoHO/1a51lbli1JjxKdEf6L+jS+1H9n6Ceku/zg0uTO0DTvLRnVCxinHrx9Dl71+XLDAmPA8NqEtyNVy9nb1/48aNm8wpaFy9MIV20tHUeqn7oNG3MdE0cTnxkAmOHp81gqPHwBSPAALZLqB3W+k0Yna4Hm/3aOH61nzhF/EgJQTsg1T0gJIxS0JKwOWggyA4enyyCI4eA1M8Aghku4DeMeamR57WOUqMEb+bZPzw/+4hne2VowJJFdCrBt27Pm2OAN9gtDY+3ZnPQlJPQBLejODoMTLB0WNgikcAAQQQQACBpAkQHD2mJjh6DEzxCCCAAAIIIJA0AYKjx9QER4+BKR4BBBBAAAEEkiZAcPSYmuDoMTDFI4AAAggggEDSBAiOHlMTHD0GpngEEEAAAQQQSJoAwdFjaoKjx8AUjwACCCCAAAJJEyA4ekxNcPQYmOIRQAABBBBAIGkCBEePqQmOHgNTPAIIIIAAAggkTYDg6DE1wdFjYIpHAAEEEEAAgaQJEBw9piY4egxM8QgggAACCCCQNAGCo8fUBEePgSkeAQQQQAABBJImQHD0mJrg6DEwxSOAAAIIIIBA0gQIjh5TExw9BqZ4BBBAAAEEEEiaAMHRY2qCo8fAFI8AAggggAACSRMgOHpMTXD0GJjiEUAAAQQQQCBpAgRHj6kJjh4DUzwCCCCAAAIIJE2A4OgxNcHRY2CKRwABBBBAAIGkCRAcPaYmOHoMTPEIIIAAAgggkDQBgqPH1ARHj4EpHgEEEEAAAQSSJkBw9Jia4OgxMMUjgAACCCCAQNIECI4eUxMcPQameAQQQAABBBBImgDB0WNqgqPHwBSPAAIIIIAAAkkTIDh6TE1w9BiY4hFAAAEEEEAgaQIER4+pCY4eA1M8AggggAACCCRNgODoMTXB0WNgikcAAQQQQACBpAkQHD2mJjh6DEzxCCCAAAIIIJA0AYKjx9QER4+BKR4BBBBAAAEEkiZAcPSYOn+BgpIrVy6P34XiEUAAAQQQQAABbwUOHz4se3bv8vZNjrD0XIWLlj58hK/11cvy5csvufPk8VWdqAwCCCCAAAIIIJBZgUMHD8revXsy+7Kk7J8ywTEtPV3S0/MmBY03QQABBBBAAAEEvBLYv3+fHNi/36vij6rclAmOuXLnlvz5CxwVBi9GAAEEEEAAAQSyW2DPnt1y+NCh7K6G4/unTHDUo8ubN5/kSUtzPFBWIoAAAggggAACfhc4eOCA7Nu317fVTKngSKujbz9nVAwBBBBAAAEEXAj4ubVRq59SwVEPKM1ocUw3Wh5ZEEAAAQQQQACBnCSw32hpPGC0OPp5SbngqNgMlPHzR466IYAAAggggEC0gJ8HxNjrmpLBUQ+Qlkf7aeYxAggggAACCPhVICe0NFp2KRsc9QC1z2N6WjoDZqyzzU8EEEAAAQQQ8I2ADoTZf2C/b0dQO0GldHC0DlgDZB5jcvA8ufOYYZI7zFgy/EQAAQQQQACBZAnoHWF0mp2Dhw7KQWOSb79OuZPIIxDBMREA2xBAAAEEEEAAAQTcCRAc3TmxFwIIIIAAAgggEHgBgmPgPwIAIIAAAggggAAC7gQIju6c2AsBBBBAAAEEEAi8AMEx8B8BABBAAAEEEEAAAXcCBEd3TuyFAAIIIIAAAggEXoDgGPiPAAAIIIAAAggggIA7AYKjOyf2QgABBBBAAAEEAi9AcAz8RwAABBBAAAEEEEDAnQDB0Z0TeyGAAAIIIIAAAoEXIDgG/iMAAAIIIIAAAggg4E6A4OjOib0QQAABBBBAAIHACxAcA/8RAAABBBBAAAEEEHAnQHB058ReCCCAAAIIIIBA4AUIjoH/CACAAAIIIIAAAgi4EyA4unNiLwQQQAABBBBAIPACBMfAfwQAQAABBBBAAAEE3AkQHN05sRcCCCCAAAIIIBB4AYJj4D8CACCAAAIIIIAAAu4ECI7unNgLAQQQQAABBBAIvADBMfAfAQAQQAABBBBAAAF3AgRHd07shQACCCCAAAIIBF6A4Bj4jwAACCCAAAIIIICAOwGCozsn9kIAAQQQQAABBAIvQHAM/EcAAAQQQAABBBBAwJ0AwdGdE3shgAACCCCAAAKBFyA4Bv4jAAACCCCAAAIIIOBOgODozom9EEAAAQQQQACBwAsQHAP/EQAAAQQQQAABBBBwJ0BwdOfEXggggAACCCCAQOAFCI6B/wgAgAACCCCAAAIIuBMgOLpzYi8EEEAAAQQQQCDwAgTHwH8EAEAAAQQQQAABBNwJEBzdObEXAggggAACCCAQeAGCY+A/AgAggAACCCCAAALuBAiO7pzYCwEEEEAAAQQQCLwAwTHwHwEAEEAAAQQQQAABdwIER3dO7IUAAggggAACCARegOAY+I8AAAgggAACCCCAgDsBgqM7J/ZCAAEEEEAAAQQCL0BwDPxHAAAEEEAAAQQQQMCdAMHRnRN7IYAAAggggAACgRcgOAb+IwAAAggggAACCCDgToDg6M6JvRBAAAEEEEAAgcAL/B9CR7Uj39VmIAAAAABJRU5ErkJggg==;" parent="1" vertex="1">
                    <mxGeometry x="257.88" y="150.03000000000003" width="275.12" height="291.95" as="geometry"/>
                </mxCell>
            </root>
        </mxGraphModel>
    </diagram>
</mxfile>